<svg xmlns="http://www.w3.org/2000/svg" width="250" height="278" viewBox="0 0 250.000000 278.000000" preserveAspectRatio="xMidYMid meet">
<g transform="translate(0.000000,278.000000) scale(0.100000,-0.100000)" fill="#ffffff" stroke="none">
<path d="M1265 2604 c-133 -49 -194 -213 -127 -345 78 -154 277 -185 397 -61 53 55 70 97 69 178 0 58 -4 78 -27 117 -64 108 -193 154 -312 111z"/>
<path d="M704 2136 c-44 -20 -102 -74 -124 -116 -10 -20 -46 -139 -80 -265 -49 -181 -61 -240 -58 -281 5 -61 35 -107 86 -133 52 -26 176 -55 206 -47 31 8 38 28 116 321 33 127 75 281 92 344 28 104 30 117 17 140 -8 14 -30 31 -49 38 -47 16 -168 15 -206 -1z"/>
<path d="M1165 2091 c-83 -21 -151 -77 -186 -156 -33 -75 -151 -537 -152 -595 -1 -98 24 -135 226 -338 l182 -182 5 -243 c6 -263 8 -274 63 -307 69 -43 160 -10 185 65 10 29 12 108 10 307 l-3 268 -137 138 c-76 75 -138 144 -138 152 1 33 136 524 145 526 6 2 37 -32 70 -74 33 -42 72 -81 85 -85 20 -7 72 3 220 43 107 29 205 59 218 68 80 53 62 185 -31 221 -35 13 -45 12 -150 -17 -180 -51 -167 -51 -207 5 -88 123 -144 166 -253 194 -74 20 -103 22 -152 10z"/>
<path d="M1911 2061 c-8 -5 -16 -32 -19 -64 -4 -53 -4 -54 24 -60 16 -3 32 -3 35 -1 4 2 9 27 13 55 9 67 -13 95 -53 70z"/>
<path d="M1873 1608 c-18 -5 -33 -13 -33 -18 0 -6 -13 -115 -29 -243 -124 -975 -134 -1069 -118 -1084 23 -23 55 -8 61 30 21 129 162 1313 157 1318 -3 3 -21 2 -38 -3z"/>
<path d="M741 912 c-41 -152 -89 -333 -108 -402 -38 -140 -37 -174 5 -221 52 -58 162 -47 196 19 7 15 46 149 86 297 39 149 78 292 86 319 l14 50 -78 80 c-44 45 -87 93 -97 109 -9 15 -20 27 -24 27 -3 0 -39 -125 -80 -278z"/>
</g>
</svg>