<svg version="1.0" xmlns="http://www.w3.org/2000/svg"
 width="250" height="250" viewBox="0 0 339 325"
 preserveAspectRatio="xMidYMid meet">
<g transform="translate(0,325) scale(0.1,-0.1)"
fill="#ffffff" stroke="none">
<path d="M1610 2944 c-243 -31 -436 -101 -628 -228 -255 -168 -444 -430 -533
-736 -42 -147 -52 -241 -46 -418 4 -131 10 -176 35 -272 53 -207 140 -376 278
-541 241 -289 634 -469 1024 -469 372 0 767 185 1004 469 138 165 222 328 277
538 27 100 32 142 36 275 6 178 -4 271 -48 422 -57 201 -170 396 -318 549
-200 207 -439 337 -722 392 -84 16 -293 27 -359 19z m220 -91 c0 -9 -121 -193
-128 -193 -2 0 -51 -7 -109 -15 -109 -17 -267 -67 -365 -116 l-59 -30 -104 42
c-58 23 -105 45 -105 48 0 14 160 113 250 155 96 45 244 89 355 105 74 11 265
14 265 4z m228 -39 c110 -27 267 -100 378 -174 77 -52 284 -250 284 -272 0 -6
-26 -40 -57 -76 -32 -36 -71 -81 -88 -99 l-30 -35 -270 71 c-148 38 -271 74
-272 78 -12 35 -132 202 -186 260 -37 39 -67 73 -67 77 0 3 30 51 67 107 l67
100 40 -7 c23 -3 83 -17 134 -30z m-1018 -306 c58 -23 106 -43 108 -44 2 -1
-4 -49 -12 -107 -9 -57 -16 -150 -16 -205 l0 -101 -186 -211 c-103 -116 -192
-209 -198 -207 -6 2 -62 21 -124 42 -62 20 -116 43 -119 51 -7 18 30 200 58
284 30 92 89 212 149 301 61 92 195 239 218 239 10 0 64 -19 122 -42z m1248
-324 c164 -42 262 -71 270 -82 33 -43 140 -442 130 -487 -2 -8 -88 -109 -193
-225 -181 -202 -191 -211 -221 -205 -62 11 -426 113 -434 122 -8 9 -150 562
-150 585 0 14 175 224 258 311 26 26 55 47 65 47 10 0 134 -30 275 -66z m-970
-209 c161 -39 313 -83 325 -94 4 -4 40 -139 81 -300 l74 -294 -78 -86 c-43
-47 -115 -126 -161 -174 l-84 -89 -279 74 c-245 66 -280 77 -292 99 -25 45
-86 243 -110 362 l-25 118 173 196 c95 107 177 201 183 209 14 20 29 18 193
-21z m1536 -436 l117 -42 -6 -46 c-13 -94 -66 -275 -104 -356 -56 -120 -135
-237 -225 -332 l-77 -82 -52 15 c-29 9 -89 27 -134 40 l-82 25 14 40 c15 42
35 216 35 305 l0 52 191 211 c105 116 195 211 199 211 4 0 60 -19 124 -41z
m-1674 -564 c304 -80 274 -66 308 -138 38 -81 113 -180 173 -227 l48 -37 -80
-97 c-92 -111 -73 -106 -239 -59 -213 61 -364 150 -532 314 -65 64 -118 121
-118 127 0 7 36 52 80 101 78 87 81 89 113 81 17 -5 129 -34 247 -65z m1228
-292 c56 -15 102 -31 102 -35 0 -11 -117 -91 -200 -136 -93 -51 -257 -106
-374 -127 -49 -8 -143 -15 -208 -15 -101 0 -119 2 -115 15 4 8 33 47 66 88
l61 73 91 12 c116 16 252 60 354 116 44 24 89 42 100 40 11 -2 66 -16 123 -31z"/>
</g>
</svg>
