<svg xmlns="http://www.w3.org/2000/svg" width="250" height="250" viewBox="0 0 250 250">
<g fill="#ffffff" stroke="none">
<path d="M125 15C64.3 15 15 64.3 15 125s49.3 110 110 110 110-49.3 110-110S185.7 15 125 15zm0 200c-49.7 0-90-40.3-90-90s40.3-90 90-90 90 40.3 90 90-40.3 90-90 90z"/>
<path d="M125 65l-28 20 11 33h34l11-33z"/>
<path d="M93 85L67 100l8 30 24-7-6-38z"/>
<path d="M157 85l26 15-8 30-24-7 6-38z"/>
<path d="M78 135l-6 28 22 18 14-24-18-18z"/>
<path d="M172 135l6 28-22 18-14-24 18-18z"/>
<path d="M103 185l22 13 22-13-9-27h-26z"/>
</g>
</svg>