<?xml version="1.0" standalone="no"?>
<!DOCTYPE svg PUBLIC "-//W3C//DTD SVG 20010904//EN"
 "http://www.w3.org/TR/2001/REC-SVG-20010904/DTD/svg10.dtd">
<svg version="1.0" xmlns="http://www.w3.org/2000/svg"
 width="287.000000pt" height="338.000000pt" viewBox="0 0 287.000000 338.000000"
 preserveAspectRatio="xMidYMid meet">
<g transform="translate(0.000000,338.000000) scale(0.100000,-0.100000)"
fill="#ffffff" stroke="none">
<path d="M1450 3125 c-208 -65 -230 -364 -35 -468 57 -30 173 -30 231 0 48 26
101 83 121 132 39 92 7 220 -69 286 -72 61 -157 78 -248 50z"/>
<path d="M1443 2539 c-26 -5 -76 -31 -130 -66 -48 -33 -148 -97 -222 -143 -73
-46 -140 -94 -149 -107 -8 -13 -39 -129 -68 -257 -44 -192 -51 -240 -43 -268
17 -63 75 -95 139 -78 69 19 70 20 150 371 l22 95 51 32 c28 17 54 28 58 24 4
-4 -6 -110 -22 -237 -35 -284 -35 -310 -6 -356 12 -20 121 -161 242 -313 l220
-277 5 -244 c6 -276 9 -286 87 -314 36 -13 43 -12 79 5 70 34 74 53 74 342 0
197 -3 260 -14 285 -8 18 -87 122 -175 232 -108 135 -160 208 -161 225 0 14
23 215 51 447 56 466 56 472 -3 539 -17 19 -39 39 -48 44 -33 18 -95 26 -137
19z"/>
<path d="M1740 2159 c0 -6 -7 -67 -15 -136 l-16 -126 28 -30 c15 -16 81 -78
145 -138 114 -106 118 -109 164 -109 39 0 51 5 80 34 29 29 34 41 34 79 0 41
-5 51 -47 96 -69 73 -356 341 -365 341 -5 0 -8 -5 -8 -11z"/>
<path d="M1055 1008 c-65 -244 -121 -464 -123 -491 -4 -43 -1 -50 31 -82 30
-30 42 -35 81 -35 36 0 52 6 76 28 28 25 38 56 135 417 57 214 100 394 96 400
-56 74 -165 205 -170 205 -4 0 -60 -199 -126 -442z"/>
</g>
</svg>
