<svg version="1.0" xmlns="http://www.w3.org/2000/svg"
 width="24" height="24" viewBox="0 0 600 449"
 preserveAspectRatio="xMidYMid meet">
<g transform="translate(0,449) scale(0.1,-0.1)"
fill="#ffffff" stroke="none">
<path d="M5118 3827 c-105 -45 -260 -145 -445 -290 -110 -85 -159 -147 -170
-210 -6 -42 -16 -50 -148 -122 -38 -21 -88 -48 -110 -61 -39 -23 -41 -23 -86
-7 -85 31 -163 -12 -194 -107 -18 -55 27 -26 -460 -296 l-250 -139 -135 -3
c-74 -2 -300 -6 -502 -10 l-366 -7 -38 -31 c-32 -26 -52 -60 -112 -195 -40
-90 -96 -216 -124 -279 -33 -73 -53 -133 -56 -165 l-4 -51 -114 -63 -113 -63
-64 16 c-49 13 -75 14 -116 6 -116 -22 -487 -177 -604 -252 -27 -18 -63 -50
-78 -71 -65 -90 -19 -249 92 -316 103 -63 245 -1 585 255 161 122 194 162 218
264 5 19 32 39 123 89 l117 63 53 -12 c95 -23 148 6 208 117 30 56 31 56 235
169 113 63 207 109 208 104 2 -6 -12 -68 -32 -138 -39 -140 -113 -405 -129
-466 -12 -47 -6 -52 83 -63 102 -13 416 -9 495 6 103 19 188 42 202 55 6 6 55
160 109 341 53 182 101 335 106 341 5 7 46 14 91 18 45 3 152 11 237 17 85 6
174 17 198 26 70 25 86 56 132 258 23 99 47 207 55 240 39 165 46 204 43 229
-3 25 6 32 131 102 114 65 139 75 165 69 70 -15 154 -16 202 -2 174 52 500
196 582 257 99 75 109 194 26 312 -57 81 -150 105 -246 65z m-1208 -983 c0
-17 -62 -220 -69 -227 -5 -5 -93 -11 -196 -14 -192 -6 -211 -3 -147 30 32 16
314 172 357 198 31 18 55 24 55 13z m-1302 -596 c-6 -17 -262 -159 -266 -148
-2 5 13 40 32 79 l36 70 87 4 c49 1 94 4 101 5 8 1 12 -4 10 -10z"/>
<path d="M3164 3420 c-104 -22 -201 -97 -251 -193 -38 -74 -44 -198 -13 -279
28 -76 104 -159 178 -195 50 -25 68 -28 152 -28 79 0 103 4 143 24 67 33 138
100 172 163 28 49 30 60 30 158 0 112 -11 147 -73 228 -69 90 -224 146 -338
122z"/>
<path d="M1794 1532 c-5 -4 -20 -23 -32 -43 -28 -45 -105 -119 -206 -195 l-80
-59 110 -12 c146 -15 185 -25 332 -83 230 -92 385 -92 608 -2 187 76 318 98
484 82 119 -12 186 -29 325 -86 210 -85 372 -83 598 6 161 64 243 81 392 82
148 0 243 -19 386 -78 l107 -43 73 20 c251 68 551 199 614 268 22 25 13 29
-92 46 -287 46 -886 83 -1654 101 l-276 7 -74 -31 c-185 -76 -358 -107 -599
-106 -242 1 -465 44 -608 118 -25 13 -65 16 -214 16 -101 0 -188 -4 -194 -8z"/>
<path d="M665 1483 c-16 -2 -102 -10 -190 -19 -185 -17 -346 -42 -358 -53 -19
-19 198 -141 363 -205 72 -27 293 -96 298 -92 1 2 -12 34 -30 72 -41 87 -45
183 -10 253 12 25 22 46 22 48 0 3 -51 2 -95 -4z"/>
<path d="M92 1127 c-22 -26 -3 -44 61 -56 97 -19 122 -28 287 -106 190 -90
254 -105 432 -104 146 0 218 15 393 80 87 32 96 33 235 33 l145 1 140 -57
c223 -91 234 -93 440 -93 203 0 238 7 419 85 201 85 344 90 521 16 213 -89
293 -107 460 -108 165 0 250 20 458 107 169 70 336 74 517 10 195 -69 247 -78
410 -72 176 6 243 23 408 106 130 65 162 77 272 100 54 12 76 21 78 33 6 32
-32 40 -136 28 -91 -11 -131 -23 -344 -104 -97 -37 -225 -50 -343 -36 -99 12
-141 24 -285 83 -224 93 -444 90 -691 -9 -144 -58 -218 -74 -344 -74 -127 0
-202 17 -342 74 -133 55 -234 76 -360 76 -125 0 -220 -20 -354 -75 -141 -58
-217 -75 -339 -75 -134 0 -191 12 -337 69 -155 61 -244 81 -368 81 -121 0
-224 -20 -333 -65 -152 -63 -194 -76 -302 -86 -140 -14 -244 3 -401 65 -138
54 -207 72 -310 81 -59 5 -78 3 -87 -8z"/>
</g>
</svg>