<svg xmlns="http://www.w3.org/2000/svg" width="374" height="349" viewBox="0 0 374.000000 349.000000" preserveAspectRatio="xMidYMid meet">
<g transform="translate(0.000000,349.000000) scale(0.050000,-0.050000)" fill="#ffffff" stroke="none">
<path d="M4250 6588 c-573 -204 -556 -1048 24 -1228 595 -184 1077 476 724 992 -151 222 -489 329 -748 236z"/>
<path d="M2446 5178 c-62 -30 -159 -131 -370 -384 -157 -188 -324 -386 -370 -440 -162 -191 -116 -418 98 -475 152 -41 209 6 544 448 l298 393 182 -2 c100 -1 233 -8 295 -15 l114 -13 -241 -630 c-468 -1224 -375 -1392 1071 -1931 l158 -59 -11 -677 c-11 -700 -7 -747 71 -858 139 -200 495 -166 606 57 44 89 81 1520 44 1714 -31 160 -109 236 -505 488 -198 126 -370 240 -383 253 -18 17 35 181 220 683 239 651 243 662 243 830 0 334 -164 529 -524 621 -239 61 -1416 59 -1540 -3z"/>
<path d="M4743 4257 c-53 -140 -203 -560 -203 -567 0 -69 481 -350 598 -350 133 0 1119 348 1192 421 88 88 88 267 1 358 -121 126 -149 124 -668 -49 l-464 -154 -104 91 c-58 51 -157 138 -220 195 -113 100 -115 101 -132 55z"/>
<path d="M2333 2519 c-86 -153 -165 -284 -176 -291 -10 -6 -275 -24 -589 -40 -491 -24 -581 -34 -647 -68 -262 -133 -263 -501 -1 -637 99 -51 239 -51 1137 -2 493 27 501 32 830 491 199 278 196 270 100 315 -179 86 -410 325 -457 473 -21 66 -34 50 -197 -241z"/>
</g>
</svg>