<?xml version="1.0" standalone="no"?>
<!DOCTYPE svg PUBLIC "-//W3C//DTD SVG 20010904//EN"
 "http://www.w3.org/TR/2001/REC-SVG-20010904/DTD/svg10.dtd">
<svg version="1.0" xmlns="http://www.w3.org/2000/svg"
 width="269.000000pt" height="269.000000pt" viewBox="0 0 269.000000 269.000000"
 preserveAspectRatio="xMidYMid meet">
<g transform="translate(0.000000,269.000000) scale(0.100000,-0.100000)"
fill="#000000" stroke="none">
<path d="M1413 2022 c-11 -7 -55 -70 -325 -469 -71 -106 -134 -193 -140 -193
-5 0 -46 34 -91 75 -64 60 -87 75 -111 75 -17 0 -36 -4 -41 -8 -6 -4 -64 -81
-129 -172 -66 -91 -147 -203 -181 -250 -144 -197 -298 -417 -308 -437 -15 -32
0 -71 33 -88 26 -13 169 -15 1234 -13 1168 3 1205 4 1225 22 46 42 39 56 -250
461 -148 209 -279 388 -291 398 -29 24 -66 21 -111 -10 -32 -22 -40 -24 -48
-12 -5 8 -33 52 -61 99 -230 380 -303 497 -316 513 -15 17 -67 23 -89 9z m194
-439 c69 -114 137 -227 150 -249 l23 -42 -177 -149 c-142 -118 -178 -154 -178
-173 0 -54 7 -51 459 228 54 34 103 59 108 56 4 -3 98 -132 209 -287 l201
-282 -531 -3 c-292 -1 -769 -1 -1061 0 l-530 3 226 315 c124 173 231 321 239
329 11 12 23 6 74 -39 70 -61 69 -50 9 -182 -42 -89 -44 -118 -9 -118 21 0
165 187 471 612 151 210 164 226 177 208 8 -11 71 -113 140 -227z"/>
</g>
</svg>
