<?xml version="1.0" standalone="no"?>
<!DOCTYPE svg PUBLIC "-//W3C//DTD SVG 20010904//EN"
 "http://www.w3.org/TR/2001/REC-SVG-20010904/DTD/svg10.dtd">
<svg version="1.0" xmlns="http://www.w3.org/2000/svg"
 width="419.000000pt" height="403.000000pt" viewBox="0 0 419.000000 403.000000"
 preserveAspectRatio="xMidYMid meet">
<g transform="translate(0.000000,403.000000) scale(0.100000,-0.100000)"
fill="#000000" stroke="none">
<path d="M1730 2831 c-51 -28 -245 -237 -325 -351 -21 -30 -62 -84 -90 -120
-29 -36 -71 -93 -94 -128 -30 -44 -47 -62 -58 -58 -70 27 -74 25 -185 -130
-153 -215 -220 -285 -314 -328 -91 -43 -138 -90 -265 -268 -52 -72 -128 -168
-169 -212 -114 -123 -230 -253 -230 -259 0 -3 10 -2 23 1 45 12 300 280 420
443 127 172 173 218 262 259 77 36 203 169 306 323 23 34 55 76 72 94 28 30
31 31 53 16 22 -14 26 -14 49 1 13 9 38 35 55 59 33 45 130 175 183 245 79
103 164 203 235 274 74 75 77 77 88 55 7 -12 22 -24 35 -27 48 -12 61 -47 71
-202 10 -171 32 -251 95 -346 l45 -67 -6 79 -6 79 48 -67 c114 -161 221 -303
242 -321 l23 -20 -6 45 c-3 25 -9 61 -13 80 l-7 34 57 -49 c96 -82 131 -128
151 -197 28 -103 74 -213 106 -258 17 -23 29 -43 27 -45 -2 -2 -48 39 -103 91
-55 53 -112 104 -127 115 l-26 19 9 -36 c6 -20 8 -38 5 -41 -7 -8 -91 42 -158
94 -32 24 -58 41 -58 37 0 -13 88 -168 122 -215 18 -25 54 -70 81 -100 26 -30
68 -83 95 -118 46 -62 198 -209 207 -200 2 3 -11 44 -30 92 -38 94 -43 116
-22 95 51 -50 194 -176 216 -190 15 -10 55 -24 90 -32 46 -11 89 -32 160 -79
53 -35 115 -74 138 -87 24 -13 42 -25 40 -26 -1 -2 -41 6 -87 16 -138 31 -142
26 -25 -35 61 -32 65 -36 33 -31 -20 4 -115 11 -210 16 -97 5 -203 16 -239 25
-69 18 -234 77 -280 101 -16 8 -29 12 -29 10 0 -11 46 -83 69 -108 l25 -28
-100 0 c-54 0 -126 5 -159 10 -86 14 -389 123 -437 157 -94 67 -262 173 -274
173 -15 0 69 -145 125 -215 22 -27 38 -51 36 -53 -11 -12 -171 92 -318 206
-60 46 -110 82 -112 80 -3 -2 11 -30 30 -61 19 -32 35 -60 35 -62 0 -9 -135
77 -200 127 -36 28 -79 66 -97 86 -17 20 -34 34 -37 32 -2 -3 7 -31 20 -63 19
-43 24 -73 22 -113 l-3 -54 -38 25 c-20 14 -37 21 -37 14 0 -6 18 -50 40 -97
22 -47 38 -87 36 -89 -5 -6 -153 115 -169 138 -9 12 -24 18 -42 17 -31 -3 -42
9 -86 94 l-26 50 -22 -94 c-36 -151 -33 -147 -157 -197 -60 -24 -143 -57 -184
-72 l-75 -28 85 -1 c47 0 130 -5 185 -10 83 -8 113 -7 174 6 60 14 84 15 120
6 25 -7 107 -16 181 -22 74 -5 151 -14 170 -20 19 -5 52 -10 72 -10 43 0 50
19 22 58 -9 13 -14 26 -11 29 3 3 51 -22 107 -55 l101 -60 -458 -5 c-365 -4
-469 -8 -513 -20 -50 -13 124 -15 1758 -16 1293 -1 1813 2 1810 10 -2 6 -27
18 -55 28 -77 26 -147 84 -373 307 -113 111 -232 226 -265 254 -33 28 -78 77
-100 107 -100 138 -280 370 -304 390 -18 16 -39 22 -71 23 -41 0 -48 4 -110
68 -36 37 -104 119 -151 182 -104 140 -143 178 -209 203 -49 18 -204 152 -502
434 -69 65 -130 104 -162 103 -6 -1 -27 -9 -46 -19z m396 -469 c84 -106 157
-212 152 -218 -11 -10 -122 92 -154 142 -36 56 -79 154 -66 153 4 0 34 -35 68
-77z m301 -115 c71 -37 145 -127 173 -211 12 -36 30 -77 42 -91 41 -52 10 -32
-89 58 -56 51 -105 103 -109 117 -9 31 -62 128 -75 136 -11 6 -12 27 -1 22 4
-2 30 -15 59 -31z m529 -784 c233 -241 238 -251 71 -135 -43 30 -80 52 -82 50
-4 -4 76 -114 144 -197 l36 -45 -30 19 c-61 39 -112 82 -170 145 -103 110
-215 252 -215 272 0 4 19 -4 43 -17 23 -14 45 -25 50 -25 19 0 -1 42 -71 148
-8 12 -12 22 -10 22 3 0 108 -107 234 -237z"/>
<path d="M2586 1997 c3 -10 9 -15 12 -12 3 3 0 11 -7 18 -10 9 -11 8 -5 -6z"/>
<path d="M1638 2070 c-33 -52 -31 -65 18 -150 26 -44 49 -78 51 -76 3 3 -2 35
-11 73 -9 37 -22 93 -30 123 l-12 55 -16 -25z"/>
<path d="M1265 1721 c9 -68 41 -152 92 -247 55 -99 115 -159 238 -240 81 -52
236 -134 255 -134 8 0 -46 90 -122 202 -10 15 -18 29 -18 32 0 3 30 -9 66 -25
36 -17 71 -28 77 -26 7 2 -42 57 -109 123 -66 65 -149 155 -184 199 -35 44
-68 85 -73 90 -9 10 -8 -2 9 -116 l6 -42 -73 62 c-41 35 -96 86 -122 114 l-48
52 6 -44z"/>
<path d="M1950 1426 c0 -17 103 -147 145 -183 23 -21 80 -57 127 -80 84 -43
108 -50 108 -35 0 13 -111 106 -220 182 -58 40 -117 85 -132 99 -16 13 -28 21
-28 17z"/>
</g>
</svg>
