<?xml version="1.0" standalone="no"?>
<!DOCTYPE svg PUBLIC "-//W3C//DTD SVG 20010904//EN"
 "http://www.w3.org/TR/2001/REC-SVG-20010904/DTD/svg10.dtd">
<svg version="1.0" xmlns="http://www.w3.org/2000/svg"
 width="600.000000pt" height="400.000000pt" viewBox="0 0 600.000000 400.000000"
 preserveAspectRatio="xMidYMid meet">
<g transform="translate(0.000000,400.000000) scale(0.100000,-0.100000)"
fill="#000000" stroke="none">
<path d="M2956 2979 c-20 -22 -41 -51 -46 -65 -6 -14 -24 -46 -41 -70 -17 -25
-44 -74 -60 -110 -16 -35 -47 -81 -68 -102 -21 -21 -67 -80 -102 -131 -50 -75
-71 -97 -104 -111 -50 -22 -54 -27 -145 -175 -41 -66 -92 -143 -115 -172 -41
-52 -67 -95 -161 -262 -29 -52 -73 -115 -98 -140 -45 -47 -178 -255 -196 -308
-12 -32 -63 -62 -160 -94 -53 -17 -13 -18 1430 -18 1316 0 1480 2 1438 15 -71
22 -113 50 -144 97 -15 23 -66 94 -112 157 -47 63 -134 188 -193 277 -60 89
-125 174 -144 190 -43 34 -80 86 -225 318 -61 99 -122 190 -133 203 -12 12
-40 27 -63 33 -56 14 -102 54 -176 152 -98 130 -259 331 -276 345 -31 24 -68
14 -106 -29z m53 -56 c34 -33 42 -64 51 -201 14 -202 34 -332 53 -332 1 0 1
24 -1 52 l-3 53 24 -41 c38 -65 208 -314 214 -314 3 0 3 36 1 80 -3 44 -3 80
-2 80 2 0 18 -21 36 -47 18 -27 58 -73 88 -103 48 -47 58 -64 68 -110 6 -30
15 -66 18 -79 l7 -24 -29 20 c-16 10 -58 38 -93 62 l-64 42 6 -33 c3 -18 9
-48 13 -67 l7 -33 -43 27 c-24 15 -72 50 -107 77 -35 28 -63 47 -63 43 0 -7
40 -68 118 -178 41 -57 73 -89 121 -121 80 -53 115 -90 174 -181 25 -38 54
-78 64 -88 19 -16 19 -13 -4 70 -14 49 -34 106 -45 127 l-21 40 31 -22 c17
-12 46 -44 66 -70 52 -71 179 -189 281 -261 50 -35 94 -67 99 -72 12 -11 -73
15 -129 40 l-46 20 23 -40 c19 -34 30 -42 82 -58 56 -18 59 -20 33 -26 -15 -4
-71 -5 -125 -3 -111 5 -157 24 -314 130 -49 32 -88 56 -88 54 0 -3 18 -33 40
-67 22 -34 38 -64 36 -66 -11 -11 -221 67 -295 109 -92 53 -90 56 -25 -41 13
-19 22 -37 19 -39 -9 -9 -116 33 -215 85 -118 62 -160 99 -295 258 -51 61
-103 119 -115 130 l-23 20 5 -25 c13 -60 60 -217 73 -243 14 -26 13 -27 -3
-15 -10 7 -50 47 -88 90 -38 42 -70 75 -72 74 -1 -2 4 -45 13 -97 18 -115 18
-110 -2 -102 -14 6 -15 -1 -9 -62 l7 -67 -30 24 c-16 14 -44 42 -62 62 l-32
37 -36 -35 c-20 -20 -39 -36 -43 -36 -3 0 -2 19 3 43 4 23 8 85 8 137 0 98 -7
100 -29 11 -18 -69 -137 -185 -265 -256 l-50 -28 41 44 c27 28 45 60 52 89 6
24 9 46 8 48 -2 1 -53 -49 -112 -112 -98 -104 -140 -136 -180 -136 -16 0 161
270 221 337 26 29 71 94 100 145 96 172 130 227 195 312 19 26 65 95 101 154
57 92 72 110 110 128 43 21 121 112 163 191 8 15 30 40 50 56 22 17 48 54 70
100 18 39 50 96 70 126 20 29 36 57 36 62 0 11 30 59 37 59 2 0 12 -8 22 -17z
m280 -405 l44 -63 -71 70 c-57 56 -72 78 -78 110 l-7 40 34 -47 c19 -26 54
-76 78 -110z m204 -56 c43 -15 52 -24 83 -81 24 -43 30 -62 20 -58 -21 8 -20
-6 3 -53 11 -22 16 -40 13 -40 -17 0 -93 100 -103 135 -6 22 -27 57 -47 78
-40 41 -38 43 31 19z m379 -653 c26 -57 47 -108 48 -112 0 -4 -16 4 -35 19
-19 14 -35 24 -35 21 0 -4 9 -29 20 -57 11 -28 20 -53 20 -55 0 -4 -48 48
-102 110 -24 28 -91 178 -76 169 7 -4 21 -14 32 -23 18 -15 18 -15 11 9 -4 14
-19 47 -32 74 l-25 50 63 -50 c59 -46 68 -59 111 -155z m254 -376 c-3 -3 -20
5 -38 18 -18 12 -34 23 -35 24 -1 0 -9 19 -18 41 l-16 39 56 -59 c31 -32 54
-60 51 -63z m-1250 9 c40 -29 72 -62 60 -62 -17 0 -63 31 -90 59 -37 39 -21
40 30 3z m-646 -154 c-63 -28 -140 -43 -175 -34 -27 7 -22 10 55 31 47 12 103
23 125 23 l40 1 -45 -21z"/>
<path d="M2850 2384 c0 -67 2 -72 35 -104 l35 -34 0 27 c0 29 -45 156 -60 171
-7 7 -10 -16 -10 -60z"/>
<path d="M2746 2035 c3 -28 14 -72 24 -100 9 -27 23 -73 29 -101 11 -48 41
-94 129 -202 25 -31 30 -41 16 -36 -11 4 6 -19 36 -50 30 -31 55 -56 57 -56 1
0 -11 21 -27 47 -17 26 -30 55 -30 64 0 10 -9 38 -20 63 -10 25 -17 46 -14 46
2 0 27 -11 54 -25 27 -14 54 -25 61 -25 6 0 -25 42 -69 93 -43 50 -95 117
-116 147 -42 64 -113 161 -127 175 -6 6 -7 -9 -3 -40z"/>
<path d="M3150 1761 c0 -5 15 -29 33 -52 24 -32 51 -51 100 -73 37 -16 70 -27
73 -23 3 3 -7 22 -23 42 -28 36 -183 126 -183 106z"/>
</g>
</svg>
