<?xml version="1.0" standalone="no"?>
<!DOCTYPE svg PUBLIC "-//W3C//DTD SVG 20010904//EN"
 "http://www.w3.org/TR/2001/REC-SVG-20010904/DTD/svg10.dtd">
<svg version="1.0" xmlns="http://www.w3.org/2000/svg"
 width="253.000000pt" height="264.000000pt" viewBox="0 0 253.000000 264.000000"
 preserveAspectRatio="xMidYMid meet">
<g transform="translate(0.000000,264.000000) scale(0.100000,-0.100000)"
fill="#000000" stroke="none">
<path d="M1463 2097 c-13 -7 -55 -76 -104 -172 -45 -88 -111 -214 -146 -280
-35 -66 -80 -153 -100 -192 -21 -40 -40 -73 -43 -73 -3 0 -41 29 -84 65 -132
110 -153 104 -247 -63 -138 -244 -242 -429 -274 -487 -19 -33 -56 -100 -84
-150 -56 -98 -65 -147 -32 -165 13 -7 336 -10 975 -10 943 0 956 0 976 20 25
25 25 36 2 80 -11 19 -44 84 -76 144 -78 148 -153 290 -189 356 -16 30 -70
132 -120 225 -49 94 -104 197 -122 230 -17 33 -80 151 -140 263 -120 226 -134
241 -192 209z m186 -440 c80 -149 193 -362 251 -472 126 -237 264 -497 268
-507 2 -5 -377 -8 -842 -8 -465 0 -846 3 -846 8 0 4 24 50 53 102 115 206 311
556 327 583 l17 27 77 -66 c43 -36 76 -71 73 -77 -72 -196 -85 -270 -45 -254
18 7 186 314 429 785 84 162 78 152 87 152 4 0 72 -123 151 -273z"/>
</g>
</svg>
