<?xml version="1.0" standalone="no"?>
<!DOCTYPE svg PUBLIC "-//W3C//DTD SVG 20010904//EN"
 "http://www.w3.org/TR/2001/REC-SVG-20010904/DTD/svg10.dtd">
<svg version="1.0" xmlns="http://www.w3.org/2000/svg"
 width="286.000000pt" height="360.000000pt" viewBox="0 0 286.000000 360.000000"
 preserveAspectRatio="xMidYMid meet">
<g transform="translate(0.000000,360.000000) scale(0.100000,-0.100000)"
fill="#000000" stroke="none">
<path d="M1294 1696 c-22 -7 -83 -46 -135 -86 -61 -47 -138 -93 -219 -132
-124 -60 -179 -94 -300 -188 -70 -54 -204 -113 -282 -124 -32 -5 -48 -12 -48
-22 0 -12 150 -14 1100 -14 956 0 1100 2 1100 15 0 9 -14 16 -37 20 -154 23
-202 46 -373 176 -88 67 -149 105 -205 128 -151 62 -200 88 -275 150 -48 40
-93 67 -124 76 -60 18 -146 18 -202 1z m232 -71 c13 -8 47 -36 76 -61 47 -43
85 -63 247 -135 29 -13 67 -34 85 -47 l31 -24 -55 7 c-70 8 -177 24 -210 32
-23 5 -22 2 16 -38 46 -50 78 -98 70 -106 -11 -11 -169 18 -251 46 l-87 30
-47 -23 c-48 -25 -196 -76 -218 -76 -7 0 3 22 24 51 l36 51 -99 -50 c-54 -28
-117 -53 -139 -57 -22 -4 -48 -9 -59 -12 -15 -4 -13 3 13 40 17 25 31 48 31
51 0 3 -17 -2 -37 -11 -48 -20 -327 -101 -332 -97 -2 2 -2 6 0 7 163 133 195
154 338 225 97 47 183 98 230 135 42 33 81 64 87 69 19 14 126 24 178 16 26
-4 59 -14 72 -23z"/>
</g>
</svg>
