<?xml version="1.0" standalone="no"?>
<!DOCTYPE svg PUBLIC "-//W3C//DTD SVG 20010904//EN"
 "http://www.w3.org/TR/2001/REC-SVG-20010904/DTD/svg10.dtd">
<svg version="1.0" xmlns="http://www.w3.org/2000/svg"
 width="240.000000pt" height="240.000000pt" viewBox="0 0 240.000000 240.000000"
 preserveAspectRatio="xMidYMid meet">
<g transform="translate(0.000000,240.000000) scale(0.100000,-0.100000)"
fill="#ffffff" stroke="none">
<path d="M1300 1634 c-25 -9 -76 -39 -115 -67 -38 -28 -91 -65 -116 -84 l-46
-33 -59 21 c-72 26 -150 22 -215 -11 -44 -23 -205 -168 -462 -417 -123 -120
-137 -137 -137 -167 0 -25 7 -40 26 -55 27 -21 30 -21 1013 -21 888 0 989 2
1009 16 28 20 44 57 34 83 -4 10 -106 130 -227 266 -121 136 -247 278 -280
316 -77 87 -124 123 -191 149 -66 24 -169 26 -234 4z m182 -126 c31 -9 63 -38
151 -133 122 -132 216 -237 320 -357 l67 -77 -733 -3 c-402 -2 -770 -1 -817 2
l-85 5 193 185 c107 102 207 193 223 204 48 30 93 22 263 -49 88 -36 165 -64
173 -61 29 12 12 45 -47 89 l-61 45 63 49 c137 108 197 129 290 101z"/>
</g>
</svg>
