<?xml version="1.0" standalone="no"?>
<!DOCTYPE svg PUBLIC "-//W3C//DTD SVG 20010904//EN"
 "http://www.w3.org/TR/2001/REC-SVG-20010904/DTD/svg10.dtd">
<svg version="1.0" xmlns="http://www.w3.org/2000/svg"
 width="385.000000pt" height="430.000000pt" viewBox="0 0 385.000000 430.000000"
 preserveAspectRatio="xMidYMid meet">
<g transform="translate(0.000000,430.000000) scale(0.100000,-0.100000)"
fill="#000000" stroke="none">
<path d="M1757 3392 c-24 -26 -65 -122 -142 -329 -62 -167 -73 -188 -125 -249
-31 -36 -91 -127 -133 -203 -93 -168 -143 -252 -162 -270 -12 -12 -19 -11 -49
7 l-35 21 -122 -167 c-180 -247 -200 -268 -283 -307 -120 -55 -115 -50 -391
-395 -50 -63 -99 -121 -109 -129 -14 -12 -116 -141 -174 -220 -10 -15 -9 -20
6 -35 18 -16 24 -10 130 121 408 506 473 576 569 612 73 27 85 39 248 256 71
94 130 172 133 175 2 3 20 -14 41 -37 l36 -43 28 54 c15 29 48 89 73 132 25
44 73 131 107 194 33 63 89 149 124 190 63 75 80 109 148 290 19 52 50 132 67
177 l32 82 18 -63 c10 -35 31 -88 48 -117 64 -108 100 -189 110 -250 11 -74
14 -239 3 -239 -5 0 -30 30 -58 65 -28 36 -51 59 -53 51 -5 -21 57 -232 88
-302 19 -43 54 -90 114 -154 78 -84 94 -107 160 -244 58 -118 84 -161 121
-196 41 -39 46 -41 40 -20 -13 42 -53 200 -51 200 2 0 27 -30 57 -67 29 -38
84 -100 122 -139 63 -66 69 -77 82 -137 8 -36 25 -93 38 -126 l24 -60 -32 27
c-18 15 -56 48 -86 73 -76 65 -93 72 -152 65 l-50 -7 -99 103 -98 103 26 -70
c14 -38 34 -93 44 -121 28 -79 47 -111 82 -135 73 -50 139 -113 199 -189 35
-44 66 -80 70 -80 3 0 2 21 -2 48 -4 26 -8 61 -8 77 l0 30 31 -35 c89 -100
140 -150 156 -150 41 0 90 -23 127 -58 22 -21 63 -56 90 -77 l50 -38 -170 6
c-167 5 -172 6 -290 46 -65 23 -127 41 -137 41 -13 0 -20 -10 -25 -30 -8 -42
-28 -50 -125 -50 -75 0 -93 4 -190 44 -142 58 -173 77 -300 186 -60 50 -108
87 -108 83 0 -4 27 -59 59 -121 52 -98 57 -112 38 -106 -74 23 -206 108 -391
251 -59 47 -107 80 -105 75 6 -17 170 -209 274 -322 l97 -105 -524 -6 c-460
-6 -980 -10 -1030 -9 -10 0 -18 6 -18 13 0 8 -9 22 -20 32 -20 18 -20 17 -20
-32 l0 -49 62 1 c35 1 902 2 1928 3 1856 3 1865 3 1841 22 -13 11 -33 20 -45
20 -13 0 -33 12 -47 26 -13 15 -65 59 -114 99 -50 40 -131 118 -180 174 -59
66 -122 123 -182 166 -63 45 -101 80 -121 113 -32 53 -247 338 -261 346 -4 3
-22 1 -39 -3 -25 -8 -34 -5 -50 12 -28 31 -112 171 -232 387 -57 102 -110 191
-119 198 -8 6 -34 12 -58 12 -39 0 -45 4 -82 53 -22 28 -85 131 -141 227 -56
96 -122 200 -146 230 -82 101 -150 195 -178 243 -30 50 -52 59 -79 29z m684
-984 c17 -34 52 -80 81 -107 47 -42 108 -124 108 -143 0 -5 -11 -6 -25 -2 -23
6 -24 4 -16 -23 5 -15 19 -50 31 -78 l21 -50 -31 30 c-69 65 -157 189 -163
231 -4 22 -24 78 -45 125 -58 126 -57 124 -22 99 17 -12 44 -49 61 -82z m652
-1062 c64 -52 59 -65 -9 -26 -31 17 -58 29 -61 27 -7 -8 16 -47 55 -94 19 -24
30 -43 26 -43 -26 2 -162 111 -189 151 -16 25 -56 76 -87 113 -64 74 -77 113
-32 96 36 -14 37 -13 29 18 -5 21 19 2 107 -88 62 -63 135 -132 161 -154z"/>
<path d="M1713 2404 c-17 -35 -17 -36 10 -87 15 -29 36 -63 47 -77 l20 -25 1
45 c3 75 -2 114 -19 142 -24 42 -40 42 -59 2z"/>
<path d="M1343 2074 c7 -79 31 -146 71 -198 12 -17 45 -71 72 -119 42 -77 59
-97 134 -156 47 -38 119 -99 160 -136 41 -36 82 -71 92 -76 20 -11 15 4 -52
163 l-28 67 37 -15 c59 -26 113 -44 128 -44 24 0 -4 38 -107 145 -53 55 -131
144 -173 198 -43 53 -80 97 -82 97 -3 0 -2 -33 2 -72 l6 -73 -51 43 c-79 66
-149 148 -174 203 -13 27 -27 49 -32 49 -5 0 -6 -33 -3 -76z"/>
<path d="M1167 2016 c-9 -22 26 -116 44 -116 9 0 -8 75 -25 108 -11 20 -14 22
-19 8z"/>
<path d="M940 1480 c0 -205 7 -225 55 -180 11 11 35 23 52 26 28 6 38 1 79
-39 36 -35 63 -51 115 -67 38 -11 76 -23 85 -27 25 -9 -118 158 -232 271 -56
56 -113 117 -127 136 l-27 35 0 -155z"/>
</g>
</svg>
