<?xml version="1.0" standalone="no"?>
<!DOCTYPE svg PUBLIC "-//W3C//DTD SVG 20010904//EN"
 "http://www.w3.org/TR/2001/REC-SVG-20010904/DTD/svg10.dtd">
<svg version="1.0" xmlns="http://www.w3.org/2000/svg"
 width="600.000000pt" height="429.000000pt" viewBox="0 0 600.000000 429.000000"
 preserveAspectRatio="xMidYMid meet">
<g transform="translate(0.000000,429.000000) scale(0.100000,-0.100000)"
fill="#000000" stroke="none">
<path d="M2580 3115 c-399 -437 -965 -1051 -971 -1053 -5 -2 -67 85 -138 193
l-128 196 -284 -221 c-156 -122 -354 -277 -440 -343 -87 -67 -156 -123 -154
-125 1 -2 96 38 211 89 445 196 496 218 513 224 15 4 36 -27 116 -177 131
-244 131 -243 139 -242 5 1 63 49 129 107 594 513 1079 927 1087 927 8 0 365
-284 1065 -847 77 -62 143 -113 147 -113 3 0 46 41 95 90 67 69 93 90 108 86
11 -3 262 -109 559 -236 296 -126 543 -230 548 -230 5 0 -143 120 -329 267
-186 146 -450 354 -586 462 -136 108 -256 201 -265 208 -15 11 -31 -5 -131
-133 l-114 -144 -126 122 c-69 68 -131 128 -137 133 -6 6 -189 186 -406 400
-217 215 -405 399 -418 411 l-25 21 -65 -72z"/>
</g>
</svg>
