<?xml version="1.0" standalone="no"?>
<!DOCTYPE svg PUBLIC "-//W3C//DTD SVG 20010904//EN"
 "http://www.w3.org/TR/2001/REC-SVG-20010904/DTD/svg10.dtd">
<svg version="1.0" xmlns="http://www.w3.org/2000/svg"
 width="433.000000pt" height="470.000000pt" viewBox="0 0 433.000000 470.000000"
 preserveAspectRatio="xMidYMid meet">
<g transform="translate(0.000000,470.000000) scale(0.100000,-0.100000)"
fill="#000000" stroke="none">
<path d="M1749 3096 c-42 -26 -132 -88 -200 -138 -110 -82 -134 -106 -210
-207 -48 -63 -105 -132 -127 -153 -37 -34 -47 -38 -92 -38 -28 0 -59 -4 -69
-10 -10 -5 -66 -80 -123 -167 -116 -174 -131 -191 -191 -213 -50 -18 -104 -86
-228 -283 -86 -135 -135 -198 -327 -422 -66 -77 -119 -141 -117 -144 9 -9 66
38 178 148 152 148 194 201 347 429 117 175 128 189 177 212 74 36 94 58 191
205 118 180 123 185 189 185 50 0 57 3 104 47 28 26 89 98 137 161 76 100 98
122 196 191 61 43 134 93 162 110 l52 31 27 -22 c82 -68 81 -66 88 -168 10
-145 42 -244 109 -334 32 -44 51 -59 44 -33 -3 6 -7 32 -10 57 -6 44 -6 45 11
24 58 -69 277 -322 293 -338 20 -19 20 -19 20 30 0 27 -4 66 -9 86 l-9 38 27
-19 c41 -30 231 -227 231 -240 0 -25 89 -199 121 -236 l34 -39 -50 28 c-67 39
-170 107 -227 151 -51 39 -53 39 -38 -14 5 -19 8 -36 6 -38 -5 -5 -142 64
-203 102 -24 14 -43 24 -43 22 0 -10 84 -144 119 -190 22 -30 70 -71 121 -105
53 -36 134 -107 218 -191 73 -73 135 -132 137 -129 8 8 -47 202 -71 249 -13
27 -22 49 -19 49 21 0 120 -78 161 -126 98 -116 136 -153 167 -162 18 -5 52
-15 76 -22 29 -8 63 -30 107 -71 35 -33 92 -77 125 -99 34 -22 58 -40 53 -40
-30 1 -188 42 -216 56 -32 17 -33 17 -19 -2 66 -86 104 -105 262 -129 l94 -14
-235 3 c-202 3 -246 6 -315 25 -82 22 -219 83 -326 146 l-60 35 22 -40 c12
-22 43 -62 69 -90 l46 -50 -75 0 c-42 0 -94 5 -116 10 -22 6 -87 10 -144 10
-125 0 -156 8 -290 72 -89 43 -116 61 -185 131 -71 72 -197 237 -181 237 3 0
24 -9 46 -20 41 -21 207 -90 217 -90 13 0 -51 58 -143 130 -113 88 -180 155
-253 253 l-51 69 -3 -62 -3 -63 -81 66 c-45 36 -97 85 -117 109 l-37 43 26
-85 c49 -159 107 -248 230 -351 42 -35 89 -80 105 -101 l30 -38 -35 15 c-20 9
-36 12 -36 9 0 -22 102 -133 159 -173 51 -36 46 -37 -52 -15 -97 22 -139 45
-227 123 -41 37 -106 92 -145 123 -38 30 -87 71 -108 91 -22 21 -37 30 -37 22
0 -20 42 -131 74 -193 14 -28 26 -54 26 -56 0 -14 -221 152 -263 197 -46 49
-48 50 -42 22 4 -16 15 -57 26 -90 28 -90 38 -145 28 -145 -6 0 -21 7 -35 16
-13 9 -27 15 -29 12 -3 -3 3 -41 14 -84 10 -43 17 -81 15 -83 -8 -9 -55 12
-114 50 -68 43 -64 43 -131 15 -13 -6 -17 2 -23 41 -3 26 -16 77 -28 112 l-21
65 -30 -63 c-35 -74 -57 -92 -244 -193 l-135 -73 137 -26 c120 -24 146 -26
213 -17 43 5 115 7 162 3 126 -9 260 -7 315 5 45 10 54 8 135 -25 48 -19 95
-35 103 -35 9 0 18 -4 21 -9 3 -4 -166 -11 -377 -15 -247 -4 -412 -11 -467
-20 -74 -12 155 -14 1756 -15 1013 0 1869 -4 1903 -7 68 -8 87 9 24 21 -61 11
-144 55 -197 104 -27 25 -109 114 -182 197 -73 83 -163 178 -200 210 -115 99
-185 173 -295 314 -166 211 -192 237 -252 255 -48 13 -68 31 -267 235 l-215
220 -48 0 c-62 0 -86 13 -237 128 -69 53 -172 132 -230 176 -139 106 -229 164
-265 171 -24 5 -46 -4 -106 -39z m466 -412 c55 -45 119 -110 155 -159 20 -25
-113 47 -153 84 -26 23 -97 133 -97 148 0 3 8 -1 18 -9 9 -8 44 -37 77 -64z
m420 -129 c17 -18 43 -56 58 -85 l29 -51 -28 7 -28 7 18 -29 c10 -16 30 -41
44 -56 37 -40 15 -34 -40 10 -55 44 -80 75 -100 122 -8 19 -36 54 -62 78 l-47
43 63 -6 c55 -6 67 -11 93 -40z m413 -518 c13 -12 55 -73 94 -137 39 -63 78
-126 86 -139 15 -22 12 -21 -42 9 -31 18 -59 30 -62 28 -2 -3 14 -40 36 -83
23 -42 39 -79 37 -81 -9 -9 -307 331 -307 350 0 3 20 -4 45 -16 76 -37 70 -10
-20 96 l-53 63 81 -34 c45 -19 92 -44 105 -56z m404 -484 c15 -21 27 -42 28
-48 0 -12 -75 61 -103 100 l-22 30 35 -22 c19 -12 47 -39 62 -60z m-1959 -202
c48 -33 95 -81 80 -81 -14 0 -82 51 -112 84 -32 34 -20 33 32 -3z"/>
<path d="M1582 2431 c-13 -74 -12 -76 65 -145 l52 -47 -10 36 c-6 20 -29 77
-53 128 l-43 92 -11 -64z"/>
<path d="M2148 1693 c30 -54 123 -116 216 -142 l36 -9 -19 26 c-35 49 -65 70
-146 102 -44 18 -84 35 -88 37 -5 3 -4 -3 1 -14z"/>
<path d="M0 1141 l0 -31 93 1 c50 0 88 2 82 4 -5 2 -39 12 -75 23 -36 12 -73
24 -82 27 -15 6 -18 2 -18 -24z"/>
</g>
</svg>
