<?xml version="1.0" standalone="no"?>
<!DOCTYPE svg PUBLIC "-//W3C//DTD SVG 20010904//EN"
 "http://www.w3.org/TR/2001/REC-SVG-20010904/DTD/svg10.dtd">
<svg version="1.0" xmlns="http://www.w3.org/2000/svg"
 width="600.000000pt" height="366.000000pt" viewBox="0 0 600.000000 366.000000"
 preserveAspectRatio="xMidYMid meet">
<g transform="translate(0.000000,366.000000) scale(0.100000,-0.100000)"
fill="#000000" stroke="none">
<path d="M2813 2557 c-232 -237 -449 -458 -481 -490 l-59 -58 -67 56 c-67 58
-107 74 -176 75 -30 0 -56 19 -187 130 -83 72 -156 130 -161 130 -8 0 -153
-148 -677 -690 -469 -486 -626 -650 -655 -685 l-34 -40 35 31 c18 17 194 172
389 345 388 342 666 588 779 689 119 106 104 104 207 20 49 -40 92 -75 96 -79
4 -3 -26 -49 -67 -100 -42 -52 -74 -95 -72 -97 2 -2 39 3 83 10 43 8 81 13 82
11 2 -2 -57 -89 -132 -194 -75 -104 -136 -192 -136 -195 0 -3 28 -6 62 -6 60
0 63 1 152 68 162 121 151 115 225 113 l66 -2 150 153 c83 84 328 334 544 556
217 221 397 402 400 402 10 0 84 -427 77 -439 -4 -5 -98 -71 -211 -147 l-204
-137 -90 -269 c-49 -147 -86 -268 -82 -268 3 0 45 39 91 86 47 47 111 108 142
136 57 49 60 50 180 73 229 44 558 105 566 105 4 0 33 -99 62 -221 30 -121 57
-225 61 -230 3 -6 91 -32 196 -58 l189 -48 209 99 209 99 425 -202 c234 -112
496 -236 581 -276 85 -41 146 -65 135 -55 -11 11 -280 227 -599 482 l-578 462
-101 -28 -100 -27 -39 43 c-97 107 -1051 1100 -1056 1100 -4 0 -197 -195 -429
-433z"/>
</g>
</svg>
