<?xml version="1.0" standalone="no"?>
<!DOCTYPE svg PUBLIC "-//W3C//DTD SVG 20010904//EN"
 "http://www.w3.org/TR/2001/REC-SVG-20010904/DTD/svg10.dtd">
<svg version="1.0" xmlns="http://www.w3.org/2000/svg"
 width="253.000000pt" height="264.000000pt" viewBox="0 0 253.000000 264.000000"
 preserveAspectRatio="xMidYMid meet">
<g transform="translate(0.000000,264.000000) scale(0.100000,-0.100000)"
fill="#000000" stroke="none">
<path d="M1387 1690 c-60 -15 -108 -44 -241 -144 l-126 -95 -57 21 c-68 24
-140 20 -198 -9 -47 -25 -514 -460 -526 -491 -12 -31 -1 -70 21 -82 12 -6 386
-10 1009 -10 1089 0 1021 -4 1021 60 0 31 -7 41 -160 215 -384 438 -426 481
-489 512 -62 29 -183 40 -254 23z m192 -116 c39 -15 115 -95 474 -494 l85 -95
-428 -3 c-236 -1 -625 -1 -866 0 l-438 3 199 184 c109 101 213 189 230 197 39
16 44 14 222 -52 79 -30 147 -54 153 -54 26 0 5 33 -45 71 -30 23 -55 43 -55
45 0 12 237 179 277 194 59 24 140 25 192 4z"/>
</g>
</svg>
