<?xml version="1.0" standalone="no"?>
<!DOCTYPE svg PUBLIC "-//W3C//DTD SVG 20010904//EN"
 "http://www.w3.org/TR/2001/REC-SVG-20010904/DTD/svg10.dtd">
<svg version="1.0" xmlns="http://www.w3.org/2000/svg"
 width="319.000000pt" height="400.000000pt" viewBox="0 0 319.000000 400.000000"
 preserveAspectRatio="xMidYMid meet">
<g transform="translate(0.000000,400.000000) scale(0.100000,-0.100000)"
fill="#000000" stroke="none">
<path d="M1613 2071 c-27 -21 -69 -62 -93 -92 -76 -92 -242 -279 -247 -279 -3
0 -49 33 -102 73 -73 55 -115 79 -169 96 -67 22 -73 22 -97 7 -13 -9 -82 -82
-152 -163 -71 -81 -192 -218 -270 -304 -155 -171 -194 -199 -276 -199 -35 0
-47 -4 -47 -15 0 -13 168 -15 1450 -15 1235 0 1450 2 1450 14 0 10 -20 16 -72
21 -141 14 -209 62 -571 407 -121 115 -183 168 -193 164 -9 -3 -33 -9 -54 -12
-43 -7 -46 -5 -231 172 -113 107 -198 164 -247 164 -20 0 -47 -13 -79 -39z
m77 -46 c0 -8 18 -63 40 -121 22 -59 40 -113 40 -120 0 -7 -14 -14 -32 -16
-43 -4 -46 -24 -8 -45 127 -70 157 -102 140 -148 -9 -24 -7 -30 21 -56 18 -16
45 -39 61 -50 l29 -21 -7 84 c-3 45 -8 89 -10 97 -3 10 1 10 18 -3 93 -68 110
-71 97 -18 -5 20 -12 51 -15 67 l-6 31 68 -1 69 0 22 -60 c12 -33 22 -79 22
-102 1 -37 -3 -44 -28 -57 -47 -25 -45 -41 12 -79 29 -19 74 -54 102 -79 l49
-45 -57 5 c-31 2 -64 2 -73 -2 -15 -6 -15 -8 1 -26 10 -11 24 -20 32 -20 8 0
11 -4 8 -10 -4 -6 -253 -9 -693 -7 l-687 2 3 36 c2 23 -2 40 -13 49 -13 11
-29 7 -103 -28 -101 -49 -125 -52 -118 -19 13 62 16 99 9 95 -92 -45 -131 -60
-179 -68 -32 -5 -59 -8 -60 -7 -5 4 320 369 424 477 l63 65 24 -30 c14 -16 48
-84 76 -150 28 -66 55 -124 60 -130 8 -8 5 54 -6 108 -2 9 -1 17 2 17 11 0 77
-53 195 -156 64 -57 127 -109 140 -117 16 -11 65 -16 171 -19 81 -3 147 -4
147 -3 0 6 -159 105 -193 120 -29 14 -45 31 -67 75 -16 32 -51 82 -78 111
l-49 53 90 101 c191 213 247 263 247 220z"/>
</g>
</svg>
