<?xml version="1.0" standalone="no"?>
<!DOCTYPE svg PUBLIC "-//W3C//DTD SVG 20010904//EN"
 "http://www.w3.org/TR/2001/REC-SVG-20010904/DTD/svg10.dtd">
<svg version="1.0" xmlns="http://www.w3.org/2000/svg"
 width="345.000000pt" height="360.000000pt" viewBox="0 0 345.000000 360.000000"
 preserveAspectRatio="xMidYMid meet">
<g transform="translate(0.000000,360.000000) scale(0.100000,-0.100000)"
fill="#000000" stroke="none">
<path d="M1830 2820 c-23 -5 -120 -154 -372 -570 -59 -98 -179 -293 -185 -300
-2 -2 -56 48 -121 112 -64 64 -128 118 -142 121 -14 3 -35 0 -47 -6 -13 -7
-65 -80 -116 -162 -93 -149 -197 -315 -337 -535 -186 -293 -257 -410 -265
-437 -4 -15 0 -28 14 -42 21 -21 22 -21 1515 -21 1345 0 1496 2 1510 16 28 27
18 55 -61 178 -42 67 -88 140 -102 163 -14 23 -61 97 -104 165 -43 68 -111
175 -151 238 -39 63 -118 188 -175 277 -136 214 -140 215 -296 74 -49 -45 -98
-87 -107 -92 -21 -11 -11 -30 -183 361 -184 417 -187 424 -202 442 -18 20 -41
26 -73 18z m118 -395 c167 -376 202 -456 213 -494 l12 -39 -172 -191 c-94
-104 -171 -197 -171 -206 0 -31 35 -13 124 62 112 96 382 330 416 361 51 47
161 135 164 131 10 -10 189 -291 336 -524 241 -384 261 -415 267 -431 4 -12
-189 -14 -1366 -14 -754 0 -1371 4 -1371 8 0 5 28 53 63 108 35 54 103 162
152 239 49 77 109 172 133 210 54 83 73 114 172 273 41 67 78 120 82 119 4 -1
54 -48 111 -105 l105 -103 -44 -116 c-43 -116 -45 -133 -19 -133 21 0 62 62
341 515 392 636 344 564 359 535 7 -14 49 -106 93 -205z"/>
</g>
</svg>
