<?xml version="1.0" standalone="no"?>
<!DOCTYPE svg PUBLIC "-//W3C//DTD SVG 20010904//EN"
 "http://www.w3.org/TR/2001/REC-SVG-20010904/DTD/svg10.dtd">
<svg version="1.0" xmlns="http://www.w3.org/2000/svg"
 width="345.000000pt" height="360.000000pt" viewBox="0 0 345.000000 360.000000"
 preserveAspectRatio="xMidYMid meet">
<g transform="translate(0.000000,360.000000) scale(0.100000,-0.100000)"
fill="#000000" stroke="none">
<path d="M1834 2882 c-10 -6 -102 -170 -221 -392 -77 -144 -210 -385 -223
-407 -13 -20 -17 -17 -91 82 -120 158 -139 155 -253 -43 -178 -309 -221 -381
-229 -382 -5 0 -20 9 -34 20 -32 25 -64 26 -91 3 -11 -10 -113 -199 -227 -419
-216 -421 -222 -439 -175 -464 25 -13 2869 -14 2904 0 59 22 42 70 -174 475
-15 28 -118 227 -230 443 -111 216 -212 399 -223 407 -51 36 -64 27 -234 -160
-45 -49 -84 -87 -87 -84 -4 3 -69 185 -145 405 -166 477 -177 505 -193 516
-16 10 -59 10 -74 0z m76 -312 c23 -69 65 -187 92 -262 l49 -137 -22 -43 c-12
-24 -23 -45 -25 -47 -2 -2 -27 17 -56 43 -78 68 -100 61 -157 -51 -12 -24 -25
-43 -29 -43 -4 0 -18 32 -32 71 -36 106 -59 110 -152 22 -51 -48 -77 -66 -65
-45 3 4 62 115 132 247 168 318 207 387 215 378 4 -5 26 -64 50 -133z m-646
-555 l74 -99 -33 -70 c-17 -39 -48 -102 -68 -141 l-35 -70 -22 50 c-58 137
-57 136 -133 112 -28 -9 -52 -15 -54 -13 -4 4 30 66 120 219 38 65 71 117 73
114 2 -2 37 -48 78 -102z m416 -8 c45 -110 102 -112 166 -5 20 35 39 65 41 67
2 3 16 -7 31 -21 15 -14 39 -33 54 -42 24 -16 29 -16 56 -2 28 14 30 14 39 -7
5 -12 18 -54 28 -93 l18 -71 -177 -237 c-168 -224 -193 -266 -153 -266 8 0 94
78 193 173 178 172 180 174 284 220 58 26 111 47 118 47 6 0 28 -22 47 -49 67
-93 118 -103 152 -31 l19 41 47 -36 c27 -20 60 -43 74 -50 20 -11 66 -90 191
-332 90 -175 166 -324 169 -330 4 -10 -266 -13 -1331 -13 -735 0 -1336 3
-1336 6 0 8 45 97 105 209 23 44 84 161 135 260 51 99 93 181 95 183 2 2 15
-8 30 -22 37 -34 87 -35 112 -2 10 13 25 37 34 53 12 22 29 32 83 47 36 10 70
15 74 12 4 -4 19 -38 33 -74 21 -55 32 -70 61 -85 56 -28 87 -10 146 81 50 78
134 228 165 294 10 22 34 46 60 62 23 14 56 36 72 50 17 14 32 25 35 26 3 0
16 -28 30 -63z m931 -119 c48 -95 86 -174 85 -176 -2 -2 -25 15 -50 38 -26 22
-53 40 -61 40 -8 0 -23 -20 -34 -45 -11 -25 -26 -45 -35 -45 -8 0 -34 27 -58
60 -23 33 -51 62 -60 65 -9 3 -44 -8 -78 -25 -34 -17 -65 -29 -68 -25 -3 3 19
31 49 63 30 31 90 97 133 145 43 48 81 85 84 82 3 -3 45 -83 93 -177z"/>
</g>
</svg>
