<?xml version="1.0" standalone="no"?>
<!DOCTYPE svg PUBLIC "-//W3C//DTD SVG 20010904//EN"
 "http://www.w3.org/TR/2001/REC-SVG-20010904/DTD/svg10.dtd">
<svg version="1.0" xmlns="http://www.w3.org/2000/svg"
 width="355.000000pt" height="397.000000pt" viewBox="0 0 355.000000 397.000000"
 preserveAspectRatio="xMidYMid meet">
<g transform="translate(0.000000,397.000000) scale(0.100000,-0.100000)"
fill="#000000" stroke="none">
<path d="M1794 2612 c-23 -26 -93 -101 -156 -168 -64 -66 -135 -151 -158 -187
-23 -37 -47 -67 -54 -67 -7 0 -53 17 -102 38 -139 61 -122 65 -221 -51 -132
-154 -193 -216 -253 -257 -30 -21 -86 -71 -125 -112 -91 -95 -407 -459 -403
-463 2 -1 17 0 35 2 32 5 103 79 378 397 33 38 95 93 138 123 51 36 118 100
198 189 66 74 124 134 127 133 4 0 31 -33 59 -72 51 -69 53 -75 53 -136 0 -35
5 -82 12 -103 l12 -40 27 33 c24 30 29 32 45 19 9 -8 37 -46 62 -85 24 -38 61
-88 83 -110 32 -34 109 -147 109 -162 0 -2 -17 9 -37 26 -21 16 -48 32 -60 36
-20 5 -23 3 -23 -19 0 -14 -2 -26 -4 -26 -19 0 -64 26 -110 64 -86 70 -117 70
-130 1 -10 -52 -37 -45 -112 27 -35 33 -64 56 -64 49 0 -6 11 -38 24 -71 14
-33 30 -85 36 -115 13 -65 44 -94 154 -150 78 -40 86 -36 67 29 -5 20 -6 36
-1 36 4 0 38 -27 74 -60 l66 -60 -308 0 -309 0 4 68 c6 98 -3 104 -73 49 -56
-43 -134 -87 -180 -101 l-21 -6 23 47 c12 27 26 61 30 77 l7 29 -44 -26 c-102
-60 -143 -78 -254 -112 -231 -70 -343 -65 1488 -65 1640 0 1647 0 1647 20 0
14 -7 20 -22 20 -40 0 -131 60 -200 132 -37 38 -149 164 -249 281 -100 117
-190 221 -200 231 -14 15 -30 19 -70 17 -49 -2 -53 0 -96 46 -25 26 -90 108
-145 181 -75 100 -105 132 -122 132 -26 0 -70 -31 -113 -79 -19 -22 -36 -32
-45 -28 -9 3 -86 87 -172 186 -141 162 -195 214 -262 249 -17 9 -25 5 -60 -36z
m82 -50 c33 -26 62 -92 94 -215 17 -62 30 -115 30 -119 0 -4 -10 -10 -22 -14
-29 -8 -58 -33 -58 -49 0 -7 31 -29 68 -48 79 -42 94 -56 120 -117 17 -41 66
-90 155 -159 17 -13 18 -12 11 15 -3 16 -19 53 -35 82 -17 29 -26 58 -22 65 4
7 43 57 86 112 117 147 135 159 157 105 7 -16 36 -64 66 -107 37 -54 55 -90
60 -122 8 -58 42 -126 97 -193 65 -80 77 -100 77 -126 0 -21 -3 -23 -27 -17
-55 13 -114 48 -147 87 -34 40 -35 40 -41 17 -13 -51 16 -96 110 -172 49 -39
104 -92 123 -117 36 -47 53 -55 277 -134 l100 -35 -313 0 -314 -1 -181 41
c-112 25 -200 51 -230 67 -80 43 -171 136 -271 277 -53 73 -109 145 -126 159
-39 32 -204 135 -247 153 -45 18 -43 38 19 163 48 98 61 114 191 246 77 78
144 149 149 158 11 20 18 20 44 -2z"/>
<path d="M1825 1930 c5 -8 26 -40 47 -71 21 -31 60 -103 87 -160 51 -108 98
-166 125 -156 9 4 16 16 16 28 0 17 4 20 23 16 12 -4 42 -9 66 -13 40 -6 43
-6 33 12 -15 27 -88 95 -237 220 -165 138 -172 144 -160 124z"/>
</g>
</svg>
