<?xml version="1.0" standalone="no"?>
<!DOCTYPE svg PUBLIC "-//W3C//DTD SVG 20010904//EN"
 "http://www.w3.org/TR/2001/REC-SVG-20010904/DTD/svg10.dtd">
<svg version="1.0" xmlns="http://www.w3.org/2000/svg"
 width="244.000000pt" height="244.000000pt" viewBox="0 0 244.000000 244.000000"
 preserveAspectRatio="xMidYMid meet">
<g transform="translate(0.000000,244.000000) scale(0.100000,-0.100000)"
fill="#ffffff" stroke="none">
<path d="M1168 1943 c-8 -10 -57 -94 -108 -188 -120 -218 -239 -428 -249 -438
-5 -5 -24 10 -43 32 -41 48 -78 65 -111 50 -12 -6 -53 -61 -92 -122 -38 -62
-110 -177 -161 -257 -50 -80 -144 -230 -209 -335 -65 -104 -126 -201 -136
-214 -25 -31 -24 -76 1 -101 22 -22 -113 -20 1824 -21 582 0 556 -3 556 71 0
29 -13 58 -59 126 -59 88 -310 475 -469 723 -108 168 -122 172 -228 69 l-51
-49 -179 317 c-98 175 -186 326 -196 336 -23 23 -71 23 -90 1z m149 -356 c113
-201 153 -281 153 -307 0 -30 -15 -25 -74 29 -74 67 -102 84 -120 74 -8 -4
-34 -36 -59 -69 -25 -34 -50 -65 -55 -68 -7 -4 -13 16 -17 51 -12 109 -20 111
-126 44 -47 -30 -79 -45 -75 -36 3 9 48 82 99 163 52 81 111 177 133 215 21
37 41 67 44 67 3 0 46 -73 97 -163z m72 -405 l80 -73 -136 -152 c-167 -188
-187 -213 -179 -232 10 -28 41 -15 136 55 52 38 104 74 115 79 30 14 249 71
271 71 11 -1 36 -23 58 -50 60 -77 92 -76 123 2 8 21 18 38 21 38 3 0 42 -23
86 -51 87 -54 76 -41 243 -306 l53 -83 -38 0 c-454 -4 -1968 3 -1977 8 -9 5
23 63 106 197 l118 190 93 42 c51 24 98 43 104 43 5 0 20 -31 32 -69 24 -75
40 -89 70 -63 21 19 197 292 230 358 20 39 45 60 61 49 4 -2 13 -35 20 -74 19
-108 34 -106 141 14 41 47 78 84 82 82 4 -1 43 -35 87 -75z m-621 -19 l70 -78
-33 -60 c-19 -33 -37 -60 -41 -60 -4 0 -15 22 -23 48 -9 27 -23 53 -32 57 -9
6 -37 -2 -79 -20 -36 -16 -66 -27 -68 -25 -5 5 121 214 130 215 3 0 38 -35 76
-77z m1084 -30 c66 -104 78 -134 39 -99 -32 29 -64 17 -79 -29 -7 -22 -17 -44
-21 -48 -5 -5 -23 12 -41 38 -37 54 -38 54 -155 12 -38 -14 -72 -23 -74 -21
-5 5 243 253 254 254 6 0 40 -48 77 -107z"/>
</g>
</svg>
