<?xml version="1.0" standalone="no"?>
<!DOCTYPE svg PUBLIC "-//W3C//DTD SVG 20010904//EN"
 "http://www.w3.org/TR/2001/REC-SVG-20010904/DTD/svg10.dtd">
<svg version="1.0" xmlns="http://www.w3.org/2000/svg"
 width="600.000000pt" height="437.000000pt" viewBox="0 0 600.000000 437.000000"
 preserveAspectRatio="xMidYMid meet">
<g transform="translate(0.000000,437.000000) scale(0.100000,-0.100000)"
fill="#000000" stroke="none">
<path d="M2426 3363 c-91 -148 -268 -415 -393 -595 -208 -298 -243 -343 -404
-515 -96 -103 -182 -199 -191 -213 -9 -14 -21 -50 -27 -80 l-12 -55 -161 -130
c-89 -71 -235 -195 -323 -275 -311 -279 -492 -445 -490 -448 1 -2 193 103 427
231 586 324 925 503 978 517 32 9 53 9 80 1 19 -6 51 -12 70 -13 31 -3 19 -10
-100 -62 -74 -32 -185 -89 -246 -127 -60 -37 -155 -87 -210 -111 -85 -36 -130
-66 -313 -207 -118 -91 -210 -166 -205 -168 5 -2 264 68 577 155 440 123 574
164 595 183 l27 24 -26 -30 c-14 -17 -71 -81 -128 -144 -56 -62 -100 -115 -98
-118 7 -7 310 166 466 265 133 86 202 114 188 78 -3 -7 -47 -68 -99 -135 -149
-195 -153 -196 111 38 62 56 117 101 122 101 23 0 10 -25 -58 -109 -52 -64
-104 -147 -164 -260 -48 -91 -87 -167 -85 -168 3 -3 993 354 1013 366 10 5 -6
30 -58 89 -39 45 -77 82 -84 82 -27 0 -45 -13 -45 -32 0 -17 -4 -19 -32 -13
-46 10 -44 9 -51 66 -4 29 -17 81 -29 115 -22 61 -22 64 -6 146 9 45 15 84 13
86 -2 2 -20 -6 -41 -17 -21 -12 -42 -21 -45 -21 -4 0 8 35 26 78 19 42 37 94
40 115 6 32 5 37 -11 37 -13 0 -43 -34 -87 -98 -59 -84 -132 -160 -144 -148
-2 2 5 41 16 87 11 46 22 105 26 131 l7 47 -68 31 -68 31 -43 -30 c-24 -17
-43 -28 -43 -24 0 3 21 30 47 61 36 42 55 79 85 161 21 61 38 125 38 150 0 25
9 78 21 119 20 71 20 74 2 87 -14 11 -21 11 -29 2 -7 -7 -63 -71 -126 -143
l-115 -132 -17 -89 c-18 -90 -18 -90 -59 -111 -23 -11 -103 -59 -177 -105 -92
-58 -137 -82 -142 -74 -18 28 -7 145 21 235 16 51 26 92 23 92 -3 0 -55 -37
-116 -83 -111 -83 -254 -173 -262 -164 -7 7 54 110 143 242 59 88 113 152 200
238 66 64 123 117 127 117 9 0 -34 -74 -101 -176 -29 -44 -53 -83 -53 -87 0
-3 18 4 41 16 l40 21 64 -22 64 -22 68 43 c37 24 89 55 116 70 26 15 47 31 47
35 -1 13 -50 175 -55 180 -3 3 -18 -3 -33 -14 -15 -11 -51 -37 -79 -58 -29
-21 -53 -35 -53 -32 0 3 18 35 40 71 52 85 142 264 138 276 -6 16 -143 -73
-207 -134 l-64 -62 46 65 c25 36 72 110 105 165 54 91 66 121 126 334 36 129
65 236 63 238 -3 2 -79 -117 -171 -264z"/>
<path d="M2718 3440 c27 -58 72 -150 99 -205 37 -73 58 -133 79 -223 25 -112
30 -125 55 -138 21 -10 35 -11 56 -4 15 6 34 13 41 15 10 4 -1 33 -41 108 -51
96 -308 520 -329 542 -5 6 13 -37 40 -95z"/>
<path d="M3170 2794 c98 -104 158 -174 385 -459 114 -143 212 -264 218 -270 5
-5 -18 30 -51 79 -34 49 -60 91 -59 93 9 8 78 -24 133 -63 58 -41 63 -49 122
-172 53 -111 68 -134 114 -172 29 -24 77 -65 107 -90 71 -58 59 -41 -59 91
-76 84 -120 148 -205 291 -87 146 -128 204 -204 286 -140 153 -409 373 -541
442 -15 8 1 -15 40 -56z"/>
<path d="M2927 2685 c29 -70 133 -257 195 -350 l73 -109 120 -61 c66 -33 163
-88 215 -121 150 -96 180 -115 180 -110 0 2 -82 74 -182 159 -182 154 -465
432 -548 537 -60 75 -62 78 -53 55z"/>
<path d="M3185 1929 c-13 -41 49 -90 440 -354 121 -81 209 -136 195 -123 -24
24 -592 476 -617 491 -7 4 -14 -1 -18 -14z"/>
<path d="M4245 1718 c230 -225 235 -229 310 -258 33 -13 182 -84 330 -159 149
-75 275 -137 280 -139 6 -2 -237 161 -540 363 -302 201 -554 369 -560 373 -5
3 76 -77 180 -180z"/>
<path d="M3667 1703 c92 -78 204 -152 433 -288 146 -86 273 -161 283 -166 47
-26 2 8 -158 117 -97 65 -236 160 -309 211 -117 81 -164 106 -251 138 -19 6
-18 5 2 -12z"/>
</g>
</svg>
