<?xml version="1.0" standalone="no"?>
<!DOCTYPE svg PUBLIC "-//W3C//DTD SVG 20010904//EN"
 "http://www.w3.org/TR/2001/REC-SVG-20010904/DTD/svg10.dtd">
<svg version="1.0" xmlns="http://www.w3.org/2000/svg"
 width="600.000000pt" height="407.000000pt" viewBox="0 0 600.000000 407.000000"
 preserveAspectRatio="xMidYMid meet">
<g transform="translate(0.000000,407.000000) scale(0.100000,-0.100000)"
fill="#000000" stroke="none">
<path d="M2451 3048 c-352 -247 -312 -232 -403 -155 l-47 39 -333 -259 c-183
-143 -517 -403 -743 -577 -226 -175 -417 -325 -425 -333 -13 -14 -12 -14 10
-3 14 7 84 47 155 88 72 42 397 230 724 419 326 189 597 343 601 343 5 0 11
-39 15 -87 9 -116 10 -119 38 -101 12 8 74 46 137 85 63 38 187 114 275 168
88 54 197 121 243 148 l83 50 502 -246 c276 -135 637 -312 802 -393 781 -382
1082 -527 1070 -516 -5 5 -185 123 -400 262 -214 140 -646 421 -960 625 -827
539 -1022 665 -1026 665 -2 -1 -145 -100 -318 -222z"/>
</g>
</svg>
