<?xml version="1.0" standalone="no"?>
<!DOCTYPE svg PUBLIC "-//W3C//DTD SVG 20010904//EN"
 "http://www.w3.org/TR/2001/REC-SVG-20010904/DTD/svg10.dtd">
<svg version="1.0" xmlns="http://www.w3.org/2000/svg"
 width="233.000000pt" height="233.000000pt" viewBox="0 0 233.000000 233.000000"
 preserveAspectRatio="xMidYMid meet">
<g transform="translate(0.000000,233.000000) scale(0.100000,-0.100000)"
fill="#000000" stroke="none">
<path d="M1269 1828 c-9 -7 -76 -110 -149 -228 -74 -118 -143 -230 -155 -248
l-22 -32 -62 55 c-66 59 -100 73 -134 58 -12 -6 -112 -140 -222 -299 -109
-159 -223 -322 -252 -361 -57 -79 -64 -107 -33 -141 l21 -22 512 -1 c282 0
692 0 912 1 l400 0 23 26 c28 32 28 55 -1 91 -24 28 -346 499 -595 868 -74
110 -144 210 -155 223 -23 24 -65 29 -88 10z m113 -303 c30 -44 164 -236 296
-428 133 -191 242 -349 242 -352 0 -3 -335 -5 -745 -5 -421 0 -745 4 -745 9 0
7 243 362 342 500 l17 24 55 -47 55 -46 -31 -83 c-16 -45 -30 -84 -30 -87 -2
-23 5 -31 24 -28 26 3 38 21 258 363 85 132 161 250 170 262 18 26 18 26 92
-82z"/>
</g>
</svg>
