<svg version="1.0" xmlns="http://www.w3.org/2000/svg"
 width="24" height="24" viewBox="0 0 600 532"
 preserveAspectRatio="xMidYMid meet">
<g transform="translate(0,532) scale(0.1,-0.1)"
fill="#ffffff" stroke="none">
<path d="M1260 4386 c-81 -24 -137 -56 -194 -113 -285 -283 -71 -763 330 -741
175 10 320 114 386 278 31 78 31 231 0 310 -44 111 -143 209 -252 251 -69 27
-206 34 -270 15z"/>
<path d="M4440 4309 c-40 -24 -657 -634 -701 -693 -64 -86 -17 -212 86 -232
60 -11 101 12 216 123 59 58 112 102 116 100 4 -3 48 -86 97 -185 l89 -180
-51 -57 c-28 -32 -68 -91 -88 -132 -31 -64 -40 -74 -58 -69 -22 5 -655 127
-921 177 -249 47 -241 44 -288 93 -46 49 -96 65 -145 48 -15 -5 -125 -51 -244
-102 l-217 -92 -48 29 c-26 17 -91 57 -143 90 -244 154 -394 223 -487 223
-141 -1 -265 -119 -279 -267 -5 -52 0 -74 45 -198 121 -342 273 -752 288 -775
49 -78 132 -129 223 -137 46 -5 82 2 201 36 79 24 230 67 334 98 105 30 260
75 346 100 l156 44 309 -136 c170 -75 323 -139 340 -142 131 -22 217 155 120
246 -36 34 -693 323 -746 328 -36 4 -114 -16 -380 -93 -184 -53 -344 -99 -355
-101 -17 -4 -24 7 -47 69 -14 40 -52 142 -83 227 -31 84 -54 155 -51 158 3 3
47 -18 98 -47 140 -79 135 -79 394 30 120 51 256 110 301 131 45 21 90 39 100
39 10 0 113 -18 228 -41 219 -42 652 -125 837 -160 l106 -21 7 -76 c10 -99 35
-182 80 -256 l36 -59 -152 -253 c-83 -140 -157 -258 -164 -264 -8 -6 -538 -11
-1588 -12 l-1575 -3 -43 -30 c-27 -19 -54 -50 -71 -84 l-28 -53 0 -274 0 -273
208 -3 c114 -2 213 -1 219 0 9 3 13 44 15 145 l3 142 1383 3 1382 2 0 -145 c0
-131 2 -145 18 -145 9 0 107 -1 217 -1 l200 -1 3 224 2 223 172 286 173 287
115 4 c92 4 128 10 182 31 396 153 504 655 206 956 -117 118 -274 178 -443
169 l-92 -5 -116 232 -115 232 119 119 c151 150 163 168 157 240 -5 61 -31 97
-85 120 -45 20 -82 17 -123 -7z m372 -1235 c148 -42 238 -207 194 -357 -22
-77 -97 -159 -172 -186 -196 -74 -394 61 -394 267 0 136 74 237 203 278 57 17
100 17 169 -2z"/>
<path d="M4650 2924 c-62 -39 -87 -129 -53 -194 36 -70 143 -99 209 -55 85 55
85 194 1 245 -39 24 -121 26 -157 4z"/>
</g>
</svg>
