<svg xmlns="http://www.w3.org/2000/svg" width="223" height="149" viewBox="10 25 200 70" preserveAspectRatio="xMidYMid meet">
<g transform="translate(0.000000,149.000000) scale(0.100000,-0.100000)" fill="#ffffff" stroke="none">
<path d="M546 1118 c-14 -19 -16 -74 -16 -393 0 -423 -1 -415 74 -415 72 0 76 10 76 203 l0 167 355 0 355 0 0 -163 c0 -193 5 -207 75 -207 77 0 75 -9 75 415 0 423 1 415 -74 415 -72 0 -76 -10 -76 -203 l0 -167 -352 2 -353 3 -3 164 c-3 191 -7 201 -78 201 -33 0 -46 -5 -58 -22z"/>
<path d="M382 984 c-22 -15 -22 -18 -22 -258 0 -265 -1 -260 58 -272 22 -4 40 -1 57 10 l25 16 0 245 c0 241 0 244 -22 259 -12 9 -34 16 -48 16 -14 0 -36 -7 -48 -16z"/>
<path d="M1592 984 c-22 -15 -22 -18 -22 -258 0 -272 0 -271 70 -271 70 0 70 -1 70 271 0 240 0 243 -22 258 -12 9 -34 16 -48 16 -14 0 -36 -7 -48 -16z"/>
<path d="M200 754 c-10 -11 -11 -23 -4 -42 9 -25 15 -27 67 -30 l57 -3 0 46 0 45 -54 0 c-36 0 -58 -5 -66 -16z"/>
<path d="M1750 725 l0 -45 53 0 c57 0 77 12 77 45 0 33 -20 45 -77 45 l-53 0 0 -45z"/>
</g>
</svg>