<svg xmlns="http://www.w3.org/2000/svg" width="281" height="171" viewBox="0 0 281.000000 171.000000" preserveAspectRatio="xMidYMid meet">
<g transform="translate(0.000000,171.000000) scale(0.100000,-0.100000)" fill="#ffffff" stroke="none">
<path d="M417 1497 c-45 -42 -56 -91 -31 -142 34 -73 42 -75 369 -75 160 0 306 -4 325 -10 24 -6 64 -39 124 -99 l90 -90 -50 -22 c-27 -12 -204 -90 -394 -174 -190 -84 -362 -160 -382 -168 -47 -20 -48 -33 -5 -42 17 -4 64 -22 103 -41 62 -30 81 -34 149 -34 69 0 87 4 152 36 144 69 245 68 387 -2 62 -30 79 -34 149 -34 70 0 88 4 151 34 147 71 231 71 385 1 60 -27 92 -35 135 -35 31 0 56 3 56 8 0 4 -206 213 -458 465 l-458 457 -381 0 -382 0 -34 -33z"/>
<path d="M2033 1385 c-79 -36 -139 -105 -165 -188 -35 -115 -7 -220 80 -305 116 -113 311 -112 425 3 66 66 82 107 82 211 0 76 -4 98 -24 137 -30 59 -97 122 -157 147 -66 29 -173 26 -241 -5z"/>
<path d="M290 593 c-14 -2 -63 -22 -109 -44 -46 -21 -97 -39 -112 -39 -28 0 -29 -2 -29 -45 0 -37 3 -45 18 -45 31 0 114 28 177 60 50 25 72 30 133 30 63 0 84 -5 145 -34 161 -76 243 -76 404 0 61 29 82 34 145 34 64 0 84 -5 144 -34 155 -76 243 -76 398 0 61 30 80 34 145 34 64 0 85 -5 136 -30 160 -80 249 -79 425 4 84 40 176 37 272 -8 83 -39 160 -61 183 -52 12 4 15 16 13 43 -3 36 -5 38 -43 44 -22 3 -76 23 -120 45 -76 36 -85 38 -175 38 -90 0 -99 -2 -186 -42 -80 -37 -100 -42 -162 -42 -62 0 -81 5 -159 42 -84 40 -92 42 -183 42 -91 0 -99 -2 -186 -42 -80 -37 -101 -42 -161 -42 -62 0 -81 5 -159 42 -85 41 -93 43 -184 43 -91 0 -99 -2 -184 -43 -78 -37 -97 -42 -159 -42 -60 0 -82 6 -161 41 -76 34 -104 42 -166 44 -41 2 -86 1 -100 -2z"/>
<path d="M260 411 c-14 -4 -47 -19 -75 -33 -27 -14 -71 -31 -97 -38 -47 -12 -48 -13 -48 -52 l0 -40 47 6 c27 4 84 24 127 44 70 32 89 37 156 37 68 0 85 -4 160 -40 82 -38 89 -40 185 -40 97 0 103 1 180 40 73 36 87 40 161 40 73 0 88 -4 165 -40 81 -38 88 -40 184 -40 97 0 103 1 180 40 73 36 87 40 161 40 72 0 88 -4 161 -38 136 -64 251 -62 386 7 54 27 72 31 143 31 72 0 88 -4 160 -37 51 -25 97 -39 129 -40 l50 -3 3 37 c3 35 2 36 -37 43 -22 4 -73 23 -113 43 -72 36 -75 37 -193 37 -112 0 -123 -2 -167 -27 -126 -70 -200 -73 -331 -11 -79 37 -83 38 -197 38 -107 -1 -118 -3 -165 -29 -129 -73 -196 -72 -357 4 -65 30 -72 32 -170 28 -89 -3 -111 -8 -158 -32 -142 -72 -208 -72 -350 0 -48 25 -68 29 -155 31 -55 1 -111 -1 -125 -6z"/>
</g>
</svg>