<svg xmlns="http://www.w3.org/2000/svg" width="313" height="277" viewBox="0 0 313.000000 277.000000" preserveAspectRatio="xMidYMid meet">
<g transform="translate(0.000000,277.000000) scale(0.100000,-0.100000)" fill="#ffffff" stroke="none">
<path d="M1775 2563 c-44 -23 -65 -44 -87 -86 -12 -25 -16 -43 -10 -50 5 -7 12 -35 14 -63 6 -64 37 -110 92 -135 98 -44 201 0 237 104 9 24 19 37 31 37 17 0 17 2 3 30 -8 16 -15 42 -15 58 0 37 -31 77 -81 102 -47 25 -141 26 -184 3z"/>
<path d="M1329 2265 c-26 -13 -61 -42 -79 -65 -17 -22 -39 -40 -48 -40 -8 0 -12 -3 -8 -7 3 -4 -19 -33 -50 -64 -51 -51 -57 -63 -62 -107 -6 -66 12 -78 46 -31 47 65 230 234 295 274 37 22 65 45 63 50 -1 6 -27 11 -57 12 -41 2 -65 -3 -100 -22z"/>
<path d="M1569 2266 c-135 -47 -347 -234 -458 -403 -58 -88 -69 -128 -52 -184 10 -33 33 -57 157 -156 131 -105 144 -118 140 -142 -11 -53 -66 -447 -66 -473 0 -43 48 -90 92 -90 39 0 84 24 92 50 11 34 76 504 76 548 0 69 -29 114 -125 190 -47 37 -85 70 -85 73 0 17 111 149 166 199 45 40 64 65 65 82 0 14 7 -10 15 -53 23 -128 24 -129 219 -264 169 -117 169 -117 207 -104 56 20 76 77 41 120 -10 12 -81 65 -157 119 l-140 97 -12 71 c-6 38 -15 80 -18 92 -5 16 -3 22 8 22 18 0 31 57 22 100 -17 85 -104 135 -187 106z"/>
<path d="M1874 1534 c4 -11 8 -23 9 -27 1 -5 -66 -41 -150 -80 -142 -66 -152 -72 -156 -101 -3 -17 -3 -33 -1 -35 3 -3 46 15 97 38 151 70 163 75 150 59 -5 -7 -73 -92 -150 -189 -132 -165 -140 -179 -146 -229 -4 -30 -5 -55 -4 -56 1 -2 92 109 202 247 109 137 202 249 207 249 4 0 24 -32 44 -71 l36 -72 -55 -56 c-89 -91 -129 -169 -147 -289 -37 -236 123 -478 358 -543 320 -89 631 146 632 476 0 196 -106 364 -285 451 -75 36 -86 39 -190 42 -108 4 -140 -2 -245 -43 -12 -4 -28 19 -64 93 -40 82 -55 102 -90 122 -57 34 -60 35 -52 14z m514 -284 c116 -27 221 -111 274 -218 31 -63 33 -73 33 -177 0 -98 -3 -116 -27 -167 -56 -121 -168 -204 -307 -229 -60 -10 -79 -10 -137 4 -98 24 -149 54 -214 124 -79 84 -104 148 -104 268 0 69 5 103 22 145 25 63 107 173 125 168 7 -3 53 -83 102 -179 72 -140 94 -175 113 -177 45 -7 36 27 -57 207 -50 98 -91 183 -91 189 0 17 118 51 175 51 28 0 69 -4 93 -9z"/>
<path d="M1180 1493 c0 -5 20 -66 45 -137 25 -71 45 -134 45 -140 0 -6 -16 -20 -35 -30 l-34 -19 -46 51 c-256 285 -723 187 -845 -177 -24 -74 -29 -210 -10 -282 46 -170 200 -319 370 -358 75 -17 181 -13 256 10 89 28 146 61 209 124 60 61 97 120 120 195 9 30 21 65 25 77 6 13 5 25 0 28 -18 11 -29 80 -20 130 6 39 4 61 -10 98 l-19 49 28 16 c26 14 30 24 40 97 10 73 9 87 -10 145 -15 47 -31 74 -57 97 -37 32 -52 40 -52 26z m-289 -219 c30 -9 72 -27 94 -40 41 -23 132 -110 124 -117 -2 -3 -60 -35 -129 -72 -174 -95 -193 -116 -152 -163 15 -18 39 -23 181 -37 91 -8 167 -18 170 -20 2 -3 -1 -24 -8 -47 -46 -153 -171 -263 -331 -289 -259 -41 -500 205 -452 462 44 239 278 389 503 323z m273 -261 c8 -27 16 -64 18 -83 l3 -35 -45 3 c-84 4 -241 24 -236 30 8 8 230 131 238 132 3 0 13 -21 22 -47z"/>
</g>
</svg>