<?xml version="1.0" standalone="no"?>
<!DOCTYPE svg PUBLIC "-//W3C//DTD SVG 20010904//EN"
 "http://www.w3.org/TR/2001/REC-SVG-20010904/DTD/svg10.dtd">
<svg version="1.0" xmlns="http://www.w3.org/2000/svg"
 width="280.000000pt" height="280.000000pt" viewBox="0 0 280.000000 280.000000"
 preserveAspectRatio="xMidYMid meet">
<g transform="translate(0.000000,280.000000) scale(0.100000,-0.100000)"
fill="#ffffff" stroke="none">
<path d="M775 2560 c-283 -38 -515 -300 -515 -584 0 -89 23 -182 67 -271 46
-93 86 -146 175 -231 90 -87 173 -143 292 -200 114 -54 209 -80 339 -94 237
-26 381 -83 575 -228 51 -38 72 -60 72 -75 0 -15 76 -98 248 -270 210 -210
252 -247 276 -247 38 0 166 124 166 160 0 32 -482 518 -522 527 -65 13 -233
293 -272 453 -8 36 -22 119 -31 185 -29 227 -95 391 -226 561 -123 160 -321
289 -474 309 -98 12 -111 12 -170 5z m191 -124 c183 -49 391 -244 486 -456 61
-136 73 -188 73 -320 0 -107 -3 -132 -22 -172 -32 -70 -94 -131 -166 -164 -56
-26 -72 -29 -167 -28 -125 0 -198 18 -325 78 -116 55 -189 106 -272 186 -169
166 -237 364 -184 537 48 159 176 288 336 339 53 17 178 17 241 0z m699 -1193
c36 -75 64 -140 63 -145 -2 -4 -58 19 -125 52 -67 33 -126 60 -131 60 -5 0
-15 6 -21 14 -10 12 1 28 56 84 37 39 73 71 80 71 6 1 41 -61 78 -136z"/>
<path d="M724 2400 c-12 -4 -30 -19 -41 -32 -10 -13 -38 -41 -61 -62 -35 -34
-43 -37 -57 -26 -22 19 -44 -2 -25 -25 11 -13 3 -25 -54 -84 -36 -38 -66 -74
-66 -79 0 -6 -3 -17 -6 -25 -4 -11 0 -14 13 -11 12 3 36 -13 76 -53 l57 -59
-60 -59 c-33 -33 -60 -65 -60 -72 0 -22 22 -55 70 -106 25 -26 45 -53 46 -60
3 -33 5 -36 20 -30 10 4 34 -12 70 -48 30 -29 54 -58 54 -64 1 -10 107 -81
138 -92 9 -3 -4 16 -30 43 l-48 50 55 57 c30 31 58 57 62 57 4 0 33 -26 65
-57 l58 -57 -57 -58 c-47 -48 -54 -58 -39 -64 13 -5 32 7 70 45 l52 51 58 -59
c51 -51 57 -62 46 -75 -13 -17 -11 -18 45 -18 46 0 48 1 35 18 -11 13 -5 24
45 74 l59 59 38 -34 c21 -19 42 -35 47 -35 23 0 18 19 -14 50 -19 19 -35 39
-35 45 0 6 25 35 55 65 49 48 58 53 75 43 18 -12 19 -9 18 37 0 50 -5 59 -24
40 -6 -6 -30 11 -69 50 l-59 60 51 52 c40 40 50 57 43 68 -8 12 -20 5 -65 -40
l-55 -55 -61 62 c-61 60 -61 61 -42 79 11 11 39 37 62 59 l41 39 45 -44 c47
-46 56 -45 27 5 -42 73 -58 95 -67 95 -16 0 -130 118 -122 126 10 10 -13 35
-25 28 -5 -4 -31 14 -56 39 -26 25 -63 53 -82 61 l-35 15 -62 -62 -63 -61 -60
59 c-33 33 -58 65 -55 72 5 15 -10 16 -41 3z m71 -100 l60 -60 -63 -63 -62
-62 -62 62 -63 63 60 60 c33 33 62 60 65 60 3 0 32 -27 65 -60z m290 -120
l-60 -60 -60 60 -59 60 59 60 60 60 60 -60 60 -60 -60 -60z m-459 -11 c22 -19
48 -45 58 -58 l20 -22 -59 -59 -59 -60 -63 62 -63 62 57 58 c32 32 60 57 64
56 4 -2 24 -19 45 -39z m317 -17 l57 -58 -63 -62 -63 -62 -59 60 -59 60 59 60
c33 33 62 60 65 60 3 0 31 -26 63 -58z m292 -2 l59 -59 -59 -61 -60 -60 -62
62 -63 62 57 58 c32 32 60 58 63 58 3 0 32 -27 65 -60z m-95 -204 c0 -13 -102
-116 -115 -116 -13 0 -115 102 -115 114 0 6 26 36 57 68 l57 58 58 -57 c32
-32 58 -62 58 -67z m-347 56 l57 -58 -60 -59 -60 -59 -60 59 -60 59 57 58 c32
32 60 58 63 58 3 0 31 -26 63 -58z m-148 -262 l-60 -60 -60 60 -59 60 59 60
60 60 60 -60 60 -60 -60 -60z m315 95 l38 -39 -59 -60 -59 -61 -62 63 -63 62
60 60 59 60 24 -23 c14 -12 42 -40 62 -62z m272 -97 l-62 -63 -60 60 -60 60
62 63 62 63 60 -60 61 -61 -63 -62z m-437 -28 l59 -60 -59 -60 -59 -60 -63 62
-63 62 57 58 c32 32 60 58 63 58 3 0 32 -27 65 -60z m288 3 c31 -31 57 -60 57
-63 0 -3 -26 -31 -58 -63 l-58 -57 -59 60 -59 59 55 60 c30 32 56 59 60 60 3
0 31 -25 62 -56z m300 -1 l57 -58 -63 -62 -63 -62 -59 60 -59 60 59 60 c33 33
62 60 65 60 3 0 31 -26 63 -58z m-150 -149 l58 -57 -61 -60 -60 -61 -60 60
-60 59 57 58 c32 32 60 58 63 58 3 0 32 -26 63 -57z"/>
<path d="M784 949 c-28 -10 -69 -35 -92 -54 -41 -36 -102 -141 -102 -178 0
-18 5 -19 48 -13 74 10 149 67 189 144 34 65 43 122 21 121 -7 0 -36 -9 -64
-20z"/>
<path d="M920 940 c0 -104 -113 -249 -220 -282 -30 -10 -68 -20 -84 -23 -26
-6 -28 -8 -21 -42 9 -52 37 -102 82 -147 43 -44 124 -86 166 -86 23 0 27 4 27
30 0 50 39 137 85 187 50 56 129 100 198 109 l49 7 -7 36 c-18 94 -96 185
-192 221 -73 27 -83 26 -83 -10z"/>
<path d="M1105 610 c-87 -34 -157 -119 -171 -209 -6 -38 -5 -41 17 -41 44 0
124 46 171 99 41 45 78 120 78 158 0 18 -36 15 -95 -7z"/>
</g>
</svg>
