<svg version="1.0" xmlns="http://www.w3.org/2000/svg"
 width="24" height="24" viewBox="0 0 600 691"
 preserveAspectRatio="xMidYMid meet">
<g transform="translate(0,691) scale(0.1,-0.1)"
fill="#ffffff" stroke="none">
<path d="M2581 6689 c-86 -15 -179 -65 -247 -133 -274 -275 -124 -729 264
-797 57 -10 86 -10 140 0 271 48 444 297 388 559 -28 133 -92 228 -204 300
-105 68 -222 92 -341 71z"/>
<path d="M2030 5599 c-287 -14 -594 -62 -817 -129 -87 -27 -116 -43 -157 -92
-29 -34 -176 -315 -239 -458 -8 -19 -26 -60 -40 -90 -106 -236 -114 -309 -45
-411 49 -72 116 -107 210 -108 70 -1 101 22 143 106 15 32 77 158 136 280 69
142 116 227 131 236 22 15 361 87 405 87 13 0 30 -11 39 -25 14 -22 15 -37 5
-127 -12 -110 -25 -248 -42 -424 -41 -447 -41 -444 -6 -509 22 -41 91 -114
157 -165 114 -88 213 -116 710 -200 185 -32 217 -44 235 -94 10 -30 -3 -148
-80 -716 -20 -150 -19 -185 5 -234 55 -111 227 -149 334 -74 40 29 53 44 76
94 29 61 290 1111 290 1166 0 65 -33 148 -77 193 -53 55 -124 83 -301 120
-332 69 -542 126 -578 156 -22 18 -17 40 51 225 77 206 80 214 102 214 9 0 85
-67 169 -150 l152 -150 93 0 c577 -2 690 0 727 15 84 36 141 121 142 213 0 65
-17 108 -65 160 -61 68 -82 72 -403 75 l-283 2 -47 50 c-26 28 -144 164 -262
304 -118 140 -240 283 -270 318 -76 89 -151 131 -262 143 -90 11 -107 11 -338
-1z"/>
<path d="M4322 3838 c-9 -9 -12 -105 -12 -378 0 -271 -3 -369 -12 -378 -9 -9
-112 -12 -403 -12 -291 0 -394 -3 -403 -12 -9 -9 -12 -118 -12 -429 0 -230 -3
-424 -6 -433 -5 -14 -51 -16 -408 -16 -235 0 -407 -4 -416 -10 -13 -8 -15 -63
-18 -380 -1 -203 -4 -371 -5 -372 -1 -1 -177 -5 -392 -8 l-390 -5 0 -425 0
-425 63 -3 c38 -2 69 2 78 9 12 9 14 69 14 338 0 241 3 330 12 339 9 9 109 12
390 12 363 0 378 1 388 19 6 13 10 149 10 375 0 273 3 357 13 363 6 4 194 10
417 13 l405 5 5 425 c3 234 9 431 13 438 6 9 96 12 393 12 247 0 392 4 405 10
18 10 19 25 19 378 0 213 4 373 10 382 8 13 61 16 342 20 l333 5 0 75 0 75
-410 3 c-311 2 -414 -1 -423 -10z"/>
<path d="M1890 3592 c0 -16 21 -160 47 -318 25 -159 48 -332 50 -384 4 -91 2
-102 -47 -265 -230 -761 -243 -809 -237 -877 18 -204 305 -260 397 -78 28 56
274 724 351 952 l39 117 0 355 c0 402 9 362 -90 389 -30 8 -143 41 -250 72
-107 32 -210 60 -227 63 -31 4 -33 2 -33 -26z"/>
</g>
</svg>