<svg version="1.0" xmlns="http://www.w3.org/2000/svg"
 width="24" height="24" viewBox="0 0 600 534"
 preserveAspectRatio="xMidYMid meet">
<g transform="translate(0,534) scale(0.1,-0.1)"
fill="#ffffff" stroke="none">
<path d="M2963 4871 c-112 -41 -195 -126 -235 -238 -28 -82 -22 -205 14 -285
34 -74 94 -138 166 -176 236 -126 517 12 563 277 29 163 -65 338 -219 409 -77
35 -212 42 -289 13z"/>
<path d="M2020 4063 c-52 -27 -62 -39 -267 -337 -133 -194 -215 -321 -219
-343 -18 -95 24 -187 106 -231 37 -19 56 -23 106 -20 100 6 118 24 302 292 90
130 172 240 182 246 20 11 178 14 203 4 12 -4 -10 -57 -99 -242 -95 -196 -114
-243 -114 -281 0 -55 27 -116 66 -152 16 -15 171 -123 344 -240 173 -116 319
-216 324 -220 6 -5 -56 -76 -146 -167 -170 -173 -184 -195 -176 -288 12 -140
164 -225 293 -165 26 12 130 109 296 277 264 268 279 287 279 366 0 36 -19 88
-46 124 -12 17 -155 120 -318 230 -162 109 -295 205 -296 211 0 15 142 303
150 303 3 0 74 -60 158 -134 84 -74 168 -141 187 -150 18 -9 56 -16 83 -16 45
0 81 15 309 129 279 139 312 163 333 243 36 131 -62 258 -199 258 -46 0 -74
-11 -222 -85 -93 -47 -176 -85 -184 -85 -9 0 -133 104 -278 231 -144 127 -275
238 -292 247 -26 15 -78 17 -420 20 l-390 3 -55 -28z"/>
<path d="M5039 4016 c-23 -12 -134 -107 -626 -538 -94 -83 -114 -105 -123
-140 -14 -52 8 -118 49 -148 41 -28 101 -36 139 -16 17 9 35 16 40 16 8 0
-318 -1463 -328 -1474 -3 -2 -140 -16 -305 -31 -165 -14 -426 -37 -580 -50
-348 -31 -926 -81 -1145 -100 -1234 -105 -1344 -116 -1395 -139 -132 -61 -196
-208 -151 -344 23 -68 91 -143 155 -171 l50 -21 1768 2 1768 3 70 34 c281 139
329 508 93 715 l-49 43 75 334 c210 937 346 1533 349 1534 1 1 74 64 161 140
159 140 186 173 186 232 0 91 -120 162 -201 119z"/>
<path d="M2174 2945 c-4 -17 -30 -139 -58 -272 l-51 -242 -245 -251 c-135
-138 -255 -270 -267 -292 -67 -121 18 -282 154 -295 108 -11 111 -9 413 299
151 154 287 298 303 319 24 32 36 74 74 259 25 121 44 222 42 223 -2 2 -75 52
-161 111 -87 59 -158 110 -158 114 0 4 -9 18 -19 32 l-19 25 -8 -30z"/>
</g>
</svg>