<?xml version="1.0" standalone="no"?>
<!DOCTYPE svg PUBLIC "-//W3C//DTD SVG 20010904//EN"
 "http://www.w3.org/TR/2001/REC-SVG-20010904/DTD/svg10.dtd">
<svg version="1.0" xmlns="http://www.w3.org/2000/svg"
 width="255.000000pt" height="258.000000pt" viewBox="0 0 255.000000 258.000000"
 preserveAspectRatio="xMidYMid meet">
<g transform="translate(0.000000,258.000000) scale(0.100000,-0.100000)"
fill="#ffffff" stroke="none">
<path d="M1135 2263 c-124 -65 -170 -204 -107 -324 82 -158 313 -161 402 -6
68 119 23 264 -102 328 -47 24 -150 25 -193 2z"/>
<path d="M865 1741 c-35 -15 -51 -41 -164 -266 l-110 -220 -154 -108 c-88 -62
-159 -119 -166 -133 -35 -77 11 -154 92 -154 29 0 53 7 70 20 38 30 41 24 11
-16 -51 -67 -27 -173 47 -211 13 -7 89 -38 169 -69 262 -102 451 -174 456
-174 2 0 -5 15 -16 33 -42 69 -17 177 50 215 30 17 39 32 19 32 -16 0 -242 99
-254 111 -5 6 55 -13 135 -42 80 -28 155 -53 166 -56 12 -3 86 18 165 47 175
62 169 61 169 54 0 -7 -120 -61 -265 -119 -133 -53 -152 -65 -171 -112 -19
-45 -17 -82 6 -121 30 -49 76 -74 130 -69 54 5 691 250 737 284 44 32 68 98
54 150 -6 23 -18 46 -26 53 -8 7 -15 17 -15 23 0 5 9 2 20 -8 11 -10 41 -20
69 -23 46 -4 53 -2 81 26 24 24 30 39 30 72 0 23 -4 50 -10 60 -5 10 -81 69
-169 130 l-158 112 -107 218 c-59 120 -119 228 -132 241 l-26 24 -356 2 c-196
1 -366 -2 -377 -6z m20 -748 l7 -63 -176 0 c-96 0 -186 -4 -200 -10 -51 -19
-22 7 115 103 136 95 140 99 176 170 l37 72 17 -105 c9 -58 20 -133 24 -167z
m770 197 c34 -67 39 -72 179 -172 80 -56 144 -104 142 -105 -2 -2 -15 1 -30 7
-15 5 -106 10 -203 10 l-175 0 7 53 c3 28 13 97 21 151 8 55 14 105 14 113 0
25 10 13 45 -57z"/>
</g>
</svg>
